/* XPM */
static const char *action_xpm[] = {
/* width height ncolors chars_per_pixel */
"22 22 8 1",
/* colors */
"A s bg c None",
"B c #EEEEEEEEEEEE",
"C c #BBBBBBBBBBBB",
"D c #AAAAAAAAAAAA",
"E c #555555555555",
"F c #444444444444",
"G c #000000000000",
"H c #000000000000",
/* pixels */
"AAAAAAAAAAAAAAAAAAAAAA",
"AAAAAAAAAAAAAAFAAFAAAA",
"AAAAAAAAAAAFAAAFAFAAAA",
"AAAAAAAAAAAAFAAFAFAAFA",
"AAAAAAAAAAAAAFAAAFAFAA",
"AAAAAAAAAAAAAAAGCAFAAA",
"AAAAAAAAAAAAAAGCEAAFFA",
"AAAAAAAAAAAAAGCBCEAAAA",
"AAAAAAAAAAAAGCBCEAAAAA",
"AAAAAAAAAAAGFDCEAAAAAA",
"AAAAAAAAAAGFCFEAAAAAAA",
"AAAAAAAAAGFCFGAAAAAAAA",
"AAAAAAAAGFCFGAAAAAAAAA",
"AAAAAAAGFCFGAAAAAAAAAA",
"AAAAAAGFCFGAAAAAAAAAAA",
"AAAAAGFCFGAAAAAAAAAAAA",
"AAAAGFCFGAAAAAAAAAAAAA",
"AAAGFCFGAAAAAAAAAAAAAA",
"AAGFCFGAAAAAAAAAAAAAAA",
"AAAFFGAAAAAAAAAAAHHHHH",
"AAAAGAAAAAAAAAAAAAHHHA",
"AAAAAAAAAAAAAAAAAAAHAA"};
