/* XPM */
static const char *cascade_xpm[]={
"40 40 178 2",
"Qt c None",
".e c #dfbfdf",
".o c #ecc8da",
".C c #979797",
"#G c #2975b6",
".# c #377dbc",
".d c #5f8bc2",
".f c #1f73b7",
".B c #999999",
".A c #a39fa1",
"#R c #2f79b9",
"#5 c #357cbb",
".n c #4784be",
".c c #4e86c1",
".a c #4f86c1",
".b c #4f87c1",
"#F c #477fac",
".z c #5b89b6",
"#P c #6692ca",
"#Q c #4182c0",
"#O c #6893c8",
"#4 c #6190ca",
".l c #6391ca",
".k c #6491ca",
".j c #6592ca",
".i c #6692ca",
".h c #6792ca",
"#3 c #a4aede",
".m c #4082c0",
".g c #4283c0",
"#2 c #a4aedd",
"#7 c #050505",
"aV c #0e2334",
"#f c #121112",
"#k c #121113",
"aU c #123c5e",
".Y c #131112",
"#D c #184265",
"aT c #1e476b",
"az c #1f486c",
".R c #1f73b7",
"ai c #20486b",
"#B c #2279c0",
"#C c #246499",
"aS c #2479be",
"#u c #2680c9",
"#n c #2780c9",
"aC c #2880c9",
"#i c #2980c9",
"#s c #2981c9",
"#j c #2a557a",
"#o c #2a567b",
"#e c #2b557a",
"aw c #2b81c9",
"aJ c #2c86d2",
"#a c #2d577c",
"aR c #2d82c8",
"#d c #2d82c9",
".7 c #2e567b",
"#r c #2e82c9",
"#t c #2e8ddb",
".X c #2f567b",
"#m c #2f8ddb",
"aK c #3085cb",
"aQ c #308ddb",
"ay c #3183c7",
"ar c #3183c9",
"aE c #3185ca",
"aD c #318ddb",
"aI c #3283c9",
"at c #3381c5",
"#h c #338edb",
"## c #3484c9",
"#A c #348fdb",
"#q c #3684c9",
"#E c #376183",
"ax c #378fdb",
"aP c #3890db",
"an c #3985c9",
"aH c #3a85c9",
"ap c #3b83c5",
"#c c #3c91db",
".5 c #3d86c9",
"#z c #3e92db",
"#p c #3f87ca",
"as c #4293dc",
"ak c #4388ca",
"am c #4486c5",
"aG c #4589ca",
"aO c #4594db",
".W c #498aca",
"#. c #4995dc",
".M c #4b7196",
".V c #4c8bca",
"#y c #4d96dc",
".Z c #4f4f4f",
"ah c #4f89c5",
"af c #4f8bca",
".6 c #4f95c8",
"aF c #528cca",
"ao c #5297dc",
".L c #548dca",
"aN c #5698dc",
".J c #578eca",
".N c #595658",
".I c #598eca",
"ac c #5b8fc9",
".H c #5b8fca",
"a# c #5c8fca",
".4 c #5c9adc",
".G c #5d8fca",
".y c #5d90ca",
".3 c #5d9adc",
"a. c #5f90ca",
"#M c #6088bc",
".F c #6090ca",
".U c #6096d3",
"#x c #609bdd",
"ad c #6189ac",
"#9 c #6191ca",
"#L c #628ec4",
"#K c #6291ca",
"#J c #6292cb",
".E c #6391cb",
"#g c #6392cb",
".8 c #6492cb",
"#I c #6493cb",
"#N c #658dc0",
".0 c #6592cb",
"#H c #6593cb",
".P c #6692cb",
".p c #6793cb",
"al c #689ddd",
"aM c #6c9fdd",
".O c #747474",
".T c #74a1dd",
"aa c #779dd4",
"#w c #79a3dd",
".S c #7fb8da",
"ag c #80a4dd",
"aL c #85a6dd",
".K c #8aa7dd",
"#v c #8fa9de",
"ab c #93aade",
"aB c #98acde",
"#6 c #999999",
"av c #99acde",
".x c #9badde",
".w c #9cadde",
".v c #9eadde",
"#l c #9faede",
".u c #a0aede",
"#0 c #a2addb",
"#Z c #a2aedd",
"#b c #a2aede",
"#1 c #a3aedc",
"#Y c #a3aede",
"aj c #a3afde",
".9 c #a3afdf",
".t c #a4afde",
"#X c #a5afde",
"aA c #a5b0de",
"#W c #a6afde",
"au c #a6b0de",
".1 c #a6b0df",
"aq c #a7b0df",
".s c #a8b0df",
"#V c #a9b0de",
".Q c #a9b1df",
"#U c #abb1de",
".r c #abb1df",
".D c #acb1df",
"#T c #adb2de",
"ae c #adb2df",
".q c #aeb2df",
"#8 c #afb2df",
"#S c #afb3de",
".2 c #dffdfd",
"QtQtQtQtQtQtQtQtQtQtQtQtQtQtQtQtQtQtQtQtQtQtQtQtQtQtQtQtQtQtQtQtQtQtQtQtQtQtQtQt",
"QtQtQtQtQtQtQtQtQtQtQtQtQtQtQtQtQtQtQtQtQtQtQtQtQtQtQtQtQtQtQtQtQtQtQtQtQtQtQtQt",
"QtQtQtQtQtQtQtQtQtQtQtQtQtQtQtQtQtQtQtQtQtQtQtQtQtQtQtQtQtQtQtQtQtQtQtQtQtQtQtQt",
"QtQtQtQtQtQtQtQtQtQtQtQtQtQtQtQtQtQtQtQtQtQtQtQtQtQtQtQtQtQtQtQtQtQtQtQtQtQtQtQt",
"QtQtQtQt.#.a.b.b.b.b.b.b.b.b.b.b.b.b.b.b.b.b.b.b.b.b.c.d.eQtQtQtQtQtQtQtQtQtQtQt",
"QtQtQtQt.f.g.h.i.j.k.k.l.l.l.l.l.l.l.l.l.l.l.l.l.l.l.m.n.oQtQtQtQtQtQtQtQtQtQtQt",
"QtQtQtQt.f.p.q.r.s.t.u.v.w.x.x.x.x.x.x.x.x.x.x.x.x.x.y.z.A.B.CQtQtQtQtQtQtQtQtQt",
"QtQtQtQt.f.p.D.E.F.G.H.I.J.K.K.K.K.K.K.K.K.K.K.K.K.K.L.M.N.O.BQtQtQtQtQtQtQtQtQt",
"QtQtQtQt.f.P.Q.R.S.S.S.S.R.T.T.U.V.V.V.V.V.V.V.V.V.U.W.X.Y.Z.BQtQtQtQtQtQtQtQtQt",
"QtQtQtQt.f.0.1.R.2.2.2.2.R.3.4.5.6.S.S.S.S.S.S.S.6.5.5.7.Y.Z.BQtQtQtQtQtQtQtQtQt",
"QtQtQtQt.f.8.9.R.2.2.2.2.R#.#.##.S.2.2.2.2.2.2.2.S#####a.Y.Z.BQtQtQtQtQtQtQtQtQt",
"QtQtQtQt.f.8#b.R.2.2.2.2.R#c#c#d.S.2.2.2.2.2.2.2.S#d#d#e#f.Z.BQtQtQtQtQtQtQtQtQt",
"QtQtQtQt.f#g.u.R.2.2.2.2.R#h#h#i.S.2.2.2.2.2.2.2.S#i#i#j#k.Z.BQtQtQtQtQtQtQtQtQt",
"QtQtQtQt.f#g#l.R.S.S.S.S.R#m#m#n.S.2.2.2.2.2.2.2.S#n#n#o#k.Z.BQtQtQtQtQtQtQtQtQt",
"QtQtQtQt.f#g#l.J.V#p#q#r#s#t#t#u.S.2.2.2.2.2.2.2.S#u#u#o#k.Z.BQtQtQtQtQtQtQtQtQt",
"QtQtQtQt.f#g#l#v#w#x#y#z#A#t#t#u.S.2.2.2.2.2.2.2.S#u#u#o#k.Z.BQtQtQtQtQtQtQtQtQt",
"QtQtQtQt.f#g#l#v#w#x#y#z#A#t#t#u.S.2.2.2.2.2.2.2.S#u#u#o#k.Z.BQtQtQtQtQtQtQtQtQt",
"QtQtQtQt.f#g#l#v#w#x#y#z#A#t#t#u.R.R.R.R.R.R.R.R.R#u#u#o#k.Z.BQtQtQtQtQtQtQtQtQt",
"QtQtQtQt.f#g#l#v#w#x#y#z#s#u#u#u#u#u#u#u#u#u#u#u#u#u#B#C#D#E#F.f.f.f.f#GQtQtQtQt",
"QtQtQtQt.f#g#l#v#w#x#y#z.R#H#I#I#g#g#g#J#J#J#J#J#J#J#K#L#M#N#O#P#P#P#Q#RQtQtQtQt",
"QtQtQtQt.f.R.R.R.R.R.R.R.R#S#T#U#V#W#X#Y#b#b#b#b#b#b#b#Z#0#1#2#3#3#3#4#5QtQtQtQt",
"QtQtQtQtQtQtQt#6#7#7#7#7.R#8.r.E#9a..ya#aaabababababababababababababacad#6#6QtQt",
"QtQtQtQtQtQtQt#6.Z.Z.Z.Z.Rae.s.R.S.S.S.6afagagagagagagagagagagagagagahai#7#6QtQt",
"QtQtQtQtQtQtQt.B.B.B.B.B.R.raj.R.2.2.2.Sakalal.R.R.R.R.R.R.R.R.R.Ralamai#7#6QtQt",
"QtQtQtQtQtQtQtQtQtQtQtQt.R.s#l.R.2.2.2.Sanaoao.R.2.2.2.2.2.2.2.2.Raoapai#7#6QtQt",
"QtQtQtQtQtQtQtQtQtQtQtQt.Raq.w.R.2.2.2.Sarasas.R.2.2.2.2.2.2.2.2.Rasatai#7#6QtQt",
"QtQtQtQtQtQtQtQtQtQtQtQt.Rauav.R.2.2.2.Sawaxax.R.2.2.2.2.2.2.2.2.Raxayaz#7#6QtQt",
"QtQtQtQtQtQtQtQtQtQtQtQt.RaAaB.R.S.S.S.6aCaDaD.R.2.2.2.2.2.2.2.2.RaDaEaz#7#6QtQt",
"QtQtQtQtQtQtQtQtQtQtQtQt.RaAaBaFaGaHaIawaJ#t#t.R.2.2.2.2.2.2.2.2.R#taKaz#7#6QtQt",
"QtQtQtQtQtQtQtQtQtQtQtQt.RaAaBaLaMaNaOaPaQ#t#t.R.2.2.2.2.2.2.2.2.R#taKaz#7#6QtQt",
"QtQtQtQtQtQtQtQtQtQtQtQt.RaAaBaLaMaNaOaPaQ#t#t.R.2.2.2.2.2.2.2.2.R#taKaz#7#6QtQt",
"QtQtQtQtQtQtQtQtQtQtQtQt.RaAaBaLaMaNaOaPaQ#t#t.R.S.S.S.S.S.S.S.S.R#taKaz#7#6QtQt",
"QtQtQtQtQtQtQtQtQtQtQtQt.RaAaBaLaMaNaOaPaQ#t#t#u#u#u#u#u#u#u#u#u#u#taKaz#7#6QtQt",
"QtQtQtQtQtQtQtQtQtQtQtQt.RaAaBaLaMaNaOaPaQ#t#t#t#t#t#t#t#t#t#t#t#t#taRaz#7#6QtQt",
"QtQtQtQtQtQtQtQtQtQtQtQt.R#K.HaFaGaHaIaw#n#u#u#u#u#u#u#u#u#u#u#u#u#uaSaT#7#6QtQt",
"QtQtQtQtQtQtQtQtQtQtQtQt.f.f#F#EaUaUaUaUaUaUaUaUaUaUaUaUaUaUaUaUaUaUaUaV#7#6QtQt",
"QtQtQtQtQtQtQtQtQtQtQtQtQtQt.B.O.Z.Z.Z.Z.Z.Z.Z.Z.Z.Z.Z.Z.Z.Z.Z.Z.Z.Z.Z.Z.Z#6QtQt",
"QtQtQtQtQtQtQtQtQtQtQtQtQtQt.C.B.B.B.B.B.B.B.B.B.B.B.B.B.B.B.B.B.B.B.B.B.B.BQtQt",
"QtQtQtQtQtQtQtQtQtQtQtQtQtQtQtQtQtQtQtQtQtQtQtQtQtQtQtQtQtQtQtQtQtQtQtQtQtQtQtQt",
"QtQtQtQtQtQtQtQtQtQtQtQtQtQtQtQtQtQtQtQtQtQtQtQtQtQtQtQtQtQtQtQtQtQtQtQtQtQtQtQt"};
