/* XPM */
static const char *clear_xpm[] = {
/* width height ncolors chars_per_pixel */
"22 23 36 2",
/* colors */
"AA c #FFC5F8DAF5C9",
"BA c #FFFFEFEFEFEF",
"CA c #FFFFDEDEDEDE",
"DA c #FFFFCECECECE",
"EA c #FFFFBDBDBDBD",
"FA c #FFFFADADADAD",
"GA c #FFFF9C9C9C9C",
"HA c #FFFF8C8C8C8C",
"IA c #FFFF7B7B7B7B",
"JA c #FFFF6B6B6B6B",
"KA c #FFFF5A5A5A5A",
"LA c #FFFF4A4A4A4A",
"MA c #FFFF31313131",
"NA c #FFFF29292929",
"OA c #FFFF18181818",
"PA c #FFFF08080808",
"AB c #EFEF9C9C9C9C",
"BB c #EFEF73737373",
"CB c #EFEF6B6B6B6B",
"DB c #EFEF5A5A5A5A",
"EB c #EFEF4A4A4A4A",
"FB c #EFEF00000000",
"GB c #E7E739393939",
"HB c #DEDE29292929",
"IB c #DEDE10101010",
"JB c #DEDE00000000",
"KB c #CECE18181818",
"LB c #CECE08080808",
"MB c #ADAD00000000",
"NB c #9C9C00000000",
"OB c #8C8C00000000",
"PB c #7B7B00000000",
"AC c #6B6B00000000",
"BC c #5A5A00000000",
"CC c #4A4A08080808",
"DC s bg c None",
/* pixels */
"DCDCDCDCDCDCDCDCDCDCDCDCDCDCDCDCDCDCDCDCDCDC",
"DCDCDCDCDCDCPBPBBCBCBCBCBCBCPBPBDCDCDCDCDCDC",
"DCDCDCDCDCPBOBBBIAIABBIAIAIAIAPBPBDCDCDCDCDC",
"DCDCDCDCPBKBEADADADADADADADADAFAMBPBDCDCDCDC",
"DCDCDCPBNAEAEAEAEAFAEAFAEAFAEAEAEAHBPBDCDCDC",
"DCDCPBLAEAEABADAFAFAFAFAFAFADABAEAFAMAPBDCDC",
"DCACJAFAFAAAAAAACAGAGAGAGACAAAAAAAEAFAJAACDC",
"PBKAFAHAFAAAAAAAAACAHAGACAAAAAAABAFAHAFAKAPB",
"PBKAHAHAHAABBAAAAAAACABAAAAAAABAABIAGAIAOAPB",
"PBKAHAIAIAIAHABAAAAAAAAAAAAACAHAHAHAKAPAPAPB",
"PBLAIAIAIAHABBBBCAAAAAAAAACABBHAIANAPAPAPAPB",
"PBKAJAIAJAIAIAGAAAAAAAAAAABAHAMAOAOAPAPAPAPB",
"PBNAKAKAJAJAGAAAAAAAAAAAAAAABAKAOAOAOAOAPAPB",
"PBPAPAPAOAIAAAAAAAAAJAIAAAAAAAAAJANAOAOAOAPB",
"PBPAPAOAJAAAAAAABAIAMALAJAAAAAAAAAJANANAOAPB",
"PBJBNAOANAFAAABAJALAJAJAKAJABAAAABGBMAMAIBPB",
"PBNBLBNAGBNAHAJAKAIAIAIAIAJACBHAEBLAKAKBMBPB",
"DCPBNBLBLAEBLAKAIAIAGAGAGAHAHACBJAJAKBNBPBDC",
"DCDCPBPBLBEBIAIAHAFAFAEAEAEAFAGAIALBOBPBDCDC",
"DCDCDCPBBCFBGBDBDBCBCBCBCBCBCBEBJBPBPBDCDCDC",
"DCDCDCDCPBCCJBFBJBFBFBFBFBJBFBJBBCPBDCDCDCDC",
"DCDCDCDCDCPBPBCCCCCCCCCCCCCCCCPBPBDCDCDCDCDC",
"DCDCDCDCDCDCDCDCDCDCDCDCDCDCDCDCDCDCDCDCDCDC"};
