/* XPM */
static const char *clip_xpm[] = {
/* width height ncolors chars_per_pixel */
"22 25 59 2",
/* colors */
"AA c #FFFFFFFFFFFF",
"BA s bg c None",
"CA c #333331312F2F",
"DA c #717171717171",
"EA c #9C9C9C9C9C9C",
"FA c #62625D5D5858",
"GA c #828282828484",
"HA c #DCDCDCDCDCDC",
"IA c #D6D6D6D6D6D6",
"JA c #929295959A9A",
"KA c #ECECECECECEC",
"LA c #E7E7E5E5E2E2",
"MA c #FAFAFDFDFDFD",
"NA c #8A8A8D8D9191",
"OA c #8E8E8E8E8E8E",
"PA c #909090909090",
"AB c #ADADADADADAD",
"BB c #B3B3B5B5B8B8",
"CB c #B5B5B8B8BBBB",
"DB c #B8B8B4B4B1B1",
"EB c #B9B9B5B5B2B2",
"FB c #BABAB8B8B4B4",
"GB c #BCBCB9B9B5B5",
"HB c #C1C1C3C3C6C6",
"IB c #D7D7D8D8DADA",
"JB c #EFEFECECE8E8",
"KB c #EFEFEFEFEFEF",
"LB c #EFEFF0F0F2F2",
"MB c #F0F0EDEDE9E9",
"NB c #F0F0F0F0F0F0",
"OB c #F2F2EEEEEAEA",
"PB c #F2F2EFEFECEC",
"AC c #F2F2F2F2F2F2",
"BC c #F3F3F0F0EDED",
"CC c #F3F3F3F3F3F3",
"DC c #F4F4F0F0EDED",
"EC c #F4F4F2F2EEEE",
"FC c #F4F4F4F4F4F4",
"GC c #F4F4F4F4F5F5",
"HC c #F5F5F2F2EEEE",
"IC c #F5F5F5F5F5F5",
"JC c #F6F6F3F3EFEF",
"KC c #F6F6F6F6F6F6",
"LC c #F8F8F8F8F8F8",
"MC c #F8F8F9F9F9F9",
"NC c #F9F9F9F9F9F9",
"OC c #FAFAFAFAFAFA",
"PC c #FAFAFBFBFBFB",
"AD c #FBFBFBFBFBFB",
"BD c #FBFBFDFDFDFD",
"CD c #FBFBFEFEFEFE",
"DD c #FDFDFDFDFDFD",
"ED c #FDFDFFFFFFFF",
"FD c #FEFEFEFEFEFE",
"GD c #FEFEFFFFFFFF",
"HD c #75D9C694DE67",
"ID c #B18AE090E8D4",
"JD c #5EFA8B7BDD3F",
"KD c #344C3229A22B",
/* pixels */
"BABABABABABABABABABABABABABABABABABABABABABA",
"BABABABABABABABACAEADACABABABABABABABABABABA",
"BABABABABABABACAPAOAABGACABABABABABABABABABA",
"BABAKDJDJDJDFAJABBHBCBNAFAJDJDJDJDKDBABABABA",
"BABAKDJDJDFANANACBCBCBNANAFAHDHDHDKDBABABABA",
"BABAKDJDJDJDJDJDJDHDHDHDHDHDHDHDIDKDBABABABA",
"BABAKDJDJDJDJDHDHDHDHDHDHDIDIDIDIDKDBABABABA",
"BABAKDJDJDHDEAEAEAEAEAEAEAEAEAEAIDKDBABABABA",
"BABAKDJDJDHDEAECAAGDGDGDGDGDEDLBEAKDBABABABA",
"BABAKDJDHDHDEAJCAAAAAAAAAAAAADGBCDDABABABABA",
"BABAKDJDHDHDEAJCAAAAAAAAAAAAADDBAAMADABABABA",
"BABAKDJDHDHDEAJCAAAAAAAAAAAAFDIBEBFBKADABABA",
"BABAKDJDHDHDEAHCAAFDFDFDFDFDFDDDKCACFDEABABA",
"BABAKDJDHDHDEADCGDDDDDDDDDDDDDDDDDDDAAEABABA",
"BABAKDHDHDHDEABCGDDDDDDDDDDDDDDDDDDDAAEABABA",
"BABAKDHDHDHDEAPBBDOCOCOCOCOCOCOCOCNCAAEABABA",
"BABAKDHDHDHDEAOBPCNCNCNCNCNCNCLCKCLCAAEABABA",
"BABAKDHDHDHDEAMBMCKCKCKCKCKCICFCICKCAAEABABA",
"BABAKDHDIDIDEAJBGCCCCCCCCCCCCCCCCCFCDDEABABA",
"BABAKDHDIDIDEALAGCACACACACACACACACCCOCEABABA",
"BABACACACACAEAIACCKBKBKBKBKBKBNBNBACNCEABABA",
"BABABABABABADAHAAADDADADOCOCOCNCNCNCFDEABABA",
"BABABABABABADAEAEAEAEAEAEAEAEAEAEAEAEAEABABA",
"BABABABABABABABABABABABABABABABABABABABABABA",
"BABABABABABABABABABABABABABABABABABABABABABA"};
