/* XPM */
static const char *compare_xpm[] = {
/* width height ncolors chars_per_pixel */
"25 25 8 1",
/* colors */
"A s bg c None",
"B c #F46DF84AFB5D",
"C c #7D6FC748EFC7",
"D c #6ED09E4BD64C",
"E c #568F7405AA47",
"F c #2D4C2B94A47C",
"G c #31CF31CF31CF",
"H c #B263B263B263",
/* pixels */
"AAAAAAAAAAAAAAAAAAAAAAAAA",
"AAAAAAAAAAAADDDDDDDDDAAAA",
"AAAAAAAAAAFECCBBBBBCCEFAA",
"AAAAAAAAAFECCCCCCCCCCCEFA",
"AAAAAAAAFECCCEDEEEEFCCCEF",
"AAAAAAAAFECCCCFFFFFCCCCEF",
"AAAAGGGAFEDCCCCCCCCCCCDEF",
"AAAAAGGAFFEDCCCCCCCCCDEFF",
"AAAAGAGAHFFEEDDDDDDDEEFFA",
"AAAGAAAAHHFFFEEEEEEEFFFHA",
"AAGAAAAAAHHHHFFFFFFFHHAAA",
"AAGAAAAAAAAHHHHHHHHHAAGAA",
"AAAAAAAAAAAAAAAAAAAAAGGGA",
"AAAAADDDDDDDDDAAAAAAGGGGG",
"AAAFECCBBBBBCCEFAAAAAAGAA",
"AAFECCCCCCCCCCCEFAAAAAGAA",
"AFECCCEDEEEEFCCCEFAAAGAAA",
"AFECCCCFFFFFCCCCEFAGGAAAA",
"AFEDCCCCCCCCCCCDEFAAAAAAA",
"AFFEDCCCCCCCCCDEFFAAAAAAA",
"AHFFEEDDDDDDDEEFFAAAAAAAA",
"AHHFFFEEEEEEEFFFHAAAAAAAA",
"AAHHHHFFFFFFFHHAAAAAAAAAA",
"AAAAHHHHHHHHHAAAAAAAAAAAA",
"AAAAAAAAAAAAAAAAAAAAAAAAA"};
