/* XPM */
static const char *disk_xpm[]={
"22 22 217 2",
".s c None",
"bp c #000000",
"bw c #000000",
"Qt c #000000",
"bf c #000000",
".L c #0a0a0a",
"aU c #000000",
"aJ c #010101",
"aG c #020202",
"aA c #030303",
"as c #040404",
"#5 c #060606",
"#R c #070707",
"#D c #080808",
".4 c #090909",
"#i c #090909",
".t c #0d0d0d",
"bm c #000000",
".3 c #121212",
".a c #7d7d7d",
".b c #232323",
".d c #2c2c2c",
".c c #3f3f3f",
".e c #565656",
".p c #656565",
".o c #767676",
".m c #929292",
".l c #989898",
".n c #9c9c9c",
".j c #9d9d9d",
".k c #a2a2a2",
".i c #a3a3a3",
".h c #a8a8a8",
".g c #b0b0b0",
".f c #d5d5d5",
".r c #5b5b5b",
".q c #7b7b7b",
"#Z c #060606",
"aY c #131313",
"#6 c #1a1a1a",
"#8 c #1d1d1d",
"aQ c #212121",
"#V c #242424",
"#n c #272727",
"#L c #282828",
"#H c #292929",
"#v c #2d2d2d",
"az c #2e2e2e",
"au c #303030",
"aw c #313131",
"#y c #323232",
"#k c #343434",
"an c #353535",
".9 c #383838",
".X c #3a3a3a",
"aB c #3e3e3e",
"ak c #414141",
".Q c #424242",
"#c c #454545",
"ai c #4a4a4a",
"#l c #4c4c4c",
"#2 c #525252",
"#O c #595959",
"#A c #5d5d5d",
"#o c #626262",
"ap c #636363",
"ad c #666666",
"aa c #676767",
"ac c #686868",
"#f c #6b6b6b",
".Z c #757575",
"#r c #7c7c7c",
"#q c #7f7f7f",
"aC c #878787",
"#j c #8e8e8e",
"aS c #a8a8a8",
"a. c #bfbfbf",
"aN c #c0c0c0",
"bi c #c4c4c4",
"aO c #c6c6c6",
"#W c #cccccc",
"#p c #cdcdcd",
"aZ c #cecece",
"bj c #d0d0d0",
"aT c #d3d3d3",
"aR c #d4d4d4",
"#J c #d8d8d8",
"bd c #dbdbdb",
"a4 c #dfdfdf",
"a3 c #e0e0e0",
"a2 c #e1e1e1",
"#m c #e3e3e3",
"a9 c #e4e4e4",
"a0 c #efefef",
"#w c #f5f5f5",
"aE c #f6f6f6",
"aW c #f7f7f7",
"#X c #f8f8f8",
".S c #fcfcfc",
"br c #000000",
"bv c #989898",
"bs c #999999",
"bu c #a9a9a9",
"bt c #b8b8b8",
"#Y c #000000",
"bk c #070707",
"bo c #090909",
"ba c #0b0b0b",
"#K c #0c0c0c",
"b. c #101010",
"a7 c #111111",
"bq c #161616",
"#7 c #191919",
"#x c #1b1b1b",
"bn c #1f1f1f",
".W c #252525",
"#T c #262626",
"aI c #272727",
"aH c #282828",
"#F c #2f2f2f",
"av c #313131",
"ax c #323232",
"ay c #333333",
"#b c #343434",
"#t c #353535",
"am c #363636",
"#U c #373737",
".7 c #393939",
"bl c #3a3a3a",
"#G c #3d3d3d",
".O c #3e3e3e",
"al c #3f3f3f",
"be c #424242",
"#u c #444444",
"at c #454545",
"aj c #464646",
"b# c #484848",
"a6 c #494949",
"#0 c #4b4b4b",
".w c #4e4e4e",
"aX c #4f4f4f",
".y c #535353",
".8 c #545454",
"aV c #565656",
"ao c #5a5a5a",
"ab c #5d5d5d",
".P c #5e5e5e",
"af c #5f5f5f",
"ar c #606060",
"aq c #626262",
"aK c #636363",
"#M c #656565",
"#d c #676767",
"#4 c #696969",
"#z c #6a6a6a",
"#3 c #6b6b6b",
"#P c #6f6f6f",
".x c #707070",
"ah c #717171",
"ag c #737373",
"#I c #747474",
"#C c #777777",
"#B c #797979",
"ae c #7b7b7b",
"#S c #7e7e7e",
"#h c #818181",
"#g c #838383",
".1 c #848484",
"#s c #8b8b8b",
".0 c #8c8c8c",
".I c #8d8d8d",
"#E c #919191",
"#Q c #929292",
".6 c #969696",
"#. c #979797",
".J c #989898",
".N c #9b9b9b",
".# c #9e9e9e",
".R c #a0a0a0",
".E c #a5a5a5",
".5 c #a8a8a8",
".K c #aaaaaa",
".v c #adadad",
".M c #b2b2b2",
".D c #b7b7b7",
".z c #b9b9b9",
"#N c #bcbcbc",
".Y c #bfbfbf",
".F c #c0c0c0",
".u c #c1c1c1",
"#a c #c2c2c2",
".2 c #c3c3c3",
"aM c #c6c6c6",
"#e c #c7c7c7",
"#1 c #c9c9c9",
"bb c #cacaca",
"bg c #cbcbcb",
".H c #cdcdcd",
"bc c #cfcfcf",
".V c #d0d0d0",
"a8 c #d1d1d1",
"bh c #d3d3d3",
"#9 c #d4d4d4",
"aP c #dadada",
"a1 c #dbdbdb",
"aL c #dedede",
"a# c #e7e7e7",
".T c #e9e9e9",
".C c #ececec",
"a5 c #eeeeee",
".G c #f6f6f6",
"aD c #f8f8f8",
"aF c #f9f9f9",
"## c #fafafa",
".U c #fbfbfb",
".B c #fefefe",
".A c #ffffff",
"Qt.#.a.b.c.d.e.f.g.h.i.j.k.l.m.n.o.p.q.r.s.s",
".t.u.v.w.x.y.z.A.A.A.B.C.D.E.F.G.H.I.J.z.K.s",
".L.M.N.O.P.Q.R.S.T.T.U.V.W.X.w.A.Y.Z.0.1.2.3",
".4.5.6.7.8.9#..S.T.T###a#b#c#d.A#e#f#g#h.5#i",
".4.R#j#k#l#b#j.A.T.T###m#n.O#o.S#p#d#q#r.R.4",
".4#.#s#t#u#v#g#w.T.T##.A#x#y#z.A#e#A#B#C.J.4",
"#D#E.1#F#G#H#I#J.T.T.U.A#K#L#M.A#N#O#I#P#Q#D",
"#R#s#S#T#U#V#z#W.T.T#X.A#Y#Z#0.A#1#2#3#4.0#R",
"#5#h.Z#L#6#7#8#9a.#Ja#.S.S.A.S.Saaabacad#h#5",
"#5aeafag#C.Zahai#0ajakalaman#U#taoapaqarae#5",
"asagabat#Fauavawaxay#yayay#yayayaxazajabagas",
"aAahaBaC.SaDaEaFaEaEaFaEaEaFaEaE#w.AaCaBahaA",
"aG#3aH.A.A.S.A.S.A.A.S.A.A.S.A.A.A.S.AaI#3aG",
"aJaK#TaLaMaN.2aN.2.2aN.2.2aN.2.2.2aOaPaIaKaJ",
"aJaoaQaRaS.KaS.KaSaS.KaSaS.KaSaSaS.KaTaQaoaJ",
"aUaV#xaP.AaEaFaWaFaFaWaFaFaWaFaFaF.SaP#xaVaU",
"aUaXaYaZa0a1a2a1a3a3a1a3a3a1a3a4a4a5aZaYaXaU",
"aUa6a7a8a##JaP#JaPaP#JaPaP#JaPaPaPa9a8b.b#aU",
"aU.ObabbaL#W.V#p.V.V#p.V.V#p.V.Vbcbd#1#KbeaU",
"bf#x#Ybgbhbi#ebi#e#ebi#e#ebi#e#e#ebj.2bkblbf",
"bmaobn.Ha1.V.V.V.V.V.V.V.V.V.V.V.Va1#9bo.Obm",
"bpbqbrbsbtbububububububububububububtbvbr#xbw"};
