/* XPM */
static const char *draw_xpm[] = {
/* width height ncolors chars_per_pixel */
"22 25 117 2",
/* colors */
"AA c #FFFFFFFFFFFF",
"BA s bg c None",
"CA c #797979797979",
"DA c #7D7D7D7D7D7D",
"EA c #7F7F7F7F7F7F",
"FA c #BCBC61614444",
"GA c #A2A2A2A2A2A2",
"HA c #A0A0A0A0A0A0",
"IA c #909090909090",
"JA c #88884D4D3D3D",
"KA c #98989C9CA4A4",
"LA c #B3B3B3B3B3B3",
"MA c #B4B4B4B4B4B4",
"NA c #B6B6B6B6B6B6",
"OA c #BABABABABABA",
"PA c #BFBFBFBFBFBF",
"AB c #C1C1C1C1C1C1",
"BB c #C6C6C6C6C6C6",
"CB c #C9C9C9C9C9C9",
"DB c #CBCBC9C9C9C9",
"EB c #CDCDCDCDCDCD",
"FB c #CFCFCFCFCFCF",
"GB c #D2D2D2D2D2D2",
"HB c #D3D3D3D3D3D3",
"IB c #E2E2B6B69B9B",
"JB c #5C5C5E5E6161",
"KB c #CACACCCCD1D1",
"LB c #616158585050",
"MB c #6E6E6A6A6868",
"NB c #6E6E6F6F7373",
"OB c #7E7E5A5A4141",
"PB c #8F8F94949696",
"AC c #B3B3B7B7BDBD",
"BC c #B8B8B9B9C0C0",
"CC c #B8B8BABABBBB",
"DC c #BABABABABBBB",
"EC c #BABAC0C0C9C9",
"FC c #BCBCBCBCBDBD",
"GC c #BCBCC1C1CACA",
"HC c #BFBFC1C1C7C7",
"IC c #C2C2C2C2C3C3",
"JC c #C3C3C8C8D1D1",
"KC c #C6C6CACAD4D4",
"LC c #C8C8CECED7D7",
"MC c #C9C9CECED7D7",
"NC c #CACACACACACA",
"OC c #CBCBCBCBCBCB",
"PC c #CBCBCDCDCBCB",
"AD c #CBCBD0D0DADA",
"BD c #CECECECECECE",
"CD c #CECED3D3DBDB",
"DD c #CFCF91916A6A",
"ED c #D0D0D0D0D0D0",
"FD c #D1D1D1D1D1D1",
"GD c #D3D3CDCDBFBF",
"HD c #D3D3D4D4D5D5",
"ID c #D4D4D4D4D4D4",
"JD c #D5D5D5D5D5D5",
"KD c #D6D6D6D6D6D6",
"LD c #D8D8D8D8D8D8",
"MD c #DADADADADADA",
"ND c #DDDDDDDDDDDD",
"OD c #DDDDE0E0E7E7",
"PD c #E0E09B9B7474",
"AE c #E0E0E0E0E0E0",
"BE c #E1E1E1E1E1E1",
"CE c #E2E2DADAD4D4",
"DE c #E2E2E2E2E2E2",
"EE c #E2E2E3E3E3E3",
"FE c #E3E3E3E3E3E3",
"GE c #E4E4E4E4E4E4",
"HE c #E6E6E6E6E6E6",
"IE c #E6E6E8E8E9E9",
"JE c #E7E7E7E7E7E7",
"KE c #E8E8E8E8E8E8",
"LE c #E9E9E8E8E8E8",
"ME c #E9E9E9E9E9E9",
"NE c #E9E9EAEAECEC",
"OE c #EAEADBDBCFCF",
"PE c #EAEAEAEAEAEA",
"AF c #ECECECECEAEA",
"BF c #ECECECECECEC",
"CF c #EDEDEDEDEDED",
"DF c #EDEDEFEFF5F5",
"EF c #EEEEEEEEEEEE",
"FF c #EEEEEEEEEFEF",
"GF c #EFEFEFEFEFEF",
"HF c #F0F0F0F0F0F0",
"IF c #F0F0F2F2F8F8",
"JF c #F2F2F2F2F2F2",
"KF c #F3F3F3F3F3F3",
"LF c #F3F3F5F5FEFE",
"MF c #F4F4F4F4F4F4",
"NF c #F5F5F5F5F5F5",
"OF c #F5F5F8F8FFFF",
"PF c #F6F6F6F6F6F6",
"AG c #F6F6F9F9FFFF",
"BG c #F8F8F8F8F6F6",
"CG c #F8F8F8F8F8F8",
"DG c #F9F9F9F9F9F9",
"EG c #F9F9FDFDFFFF",
"FG c #FAFAF9F9F9F9",
"GG c #FAFAFAFAFAFA",
"HG c #FAFAFDFDFFFF",
"IG c #FBFBFBFBFBFB",
"JG c #FBFBFBFBFDFD",
"KG c #FBFBFDFDFFFF",
"LG c #FDFDFBFBFBFB",
"MG c #FEFEFEFEFDFD",
"NG c #FEFEFEFEFEFE",
"OG c #FFFFAAAA7676",
"PG c #BFECCA9FD523",
"AH c #69B68EBCB4B4",
"BH c #5E1D7114A47C",
"CH c #35FB3F5A90CB",
"DH c #4DC2507A73D6",
"EH c #31CF31CF31CF",
/* pixels */
"BABABABABABABABABABABABABABABABABABABABABABA",
"BAIAEACACACACACACACACACADAIAIABABABABAIAFAFA",
"BAIAAANGNGNGNGNGNGNGNGNGGGHFGAIABABAIAIBOGFA",
"BAIAAAIGIGIGIGIGIGIGIGIGNFICJFHAIAIAKBPCJAFA",
"BAIAAAIGIGIGIGIGIGIGIGIGNFFCJFHGPGAHGDJBEHJB",
"BAIAAAIGIGIGIGIGIGIGIGIGCGDCODPGAHBHCHEHJBBA",
"BAIAAAIGIGIGIGIGIGIGIGIGGGBCPGAHBHCHEHJBBABA",
"BAIAAAIGIGIGIGIGIGIGIGJGKGPGAHBHCHDHKAIABABA",
"BAIAAAGGGGGGGGGGGGGGGGHGPGAHBHCHDHACDBIABABA",
"BAIAAAGGGGGGGGGGGGGGHGPGAHBHCHDHCDAAHBIABABA",
"BAIAAAGGGGGGGGGGGGEGPGAHBHCHDHADMGNGGBIABABA",
"BAIAAACGCGCGCGCGAGPGAHBHCHDHMCLGPFDGFBIABABA",
"BAIAAANFNFNFNFOFPGAHBHCHDHLCFGMFHFPFEBIABABA",
"BAIAAAKFKFKFLFPGAHBHCHDHJCBGJFGFGFPFCBIABABA",
"BAIANGHFHFIFPGAHBHCHDHKCKFEFCFCFCFMFBBIABABA",
"BAIAGGCFFFDFPGBHCHDHGCGFBFPEPEPEPEJFABIABABA",
"BAIACGKENEOEPDCHDHECAFMEKEKEKEKEKEGFPAIABABA",
"BAIANFIECEDDOBNBHCLEHEGEGEGEGEGEGEBFOAIABABA",
"BAIANFEEMBLBPBHDHEGEFEFEFEFEFEFEFEPENAIABABA",
"BAIAMFNDHACCDEGEDEDEDEDEDEDEDEDEDEMELAIABABA",
"BAIAJFAEDEFEDEBEBEBEBEBEDEDEDEDEDEMEMAIABABA",
"BAIAJEMDMDLDKDJDIDHBFDEDFBBDEBOCNCFDIAIABABA",
"BAIAIAIAIAIAIAIAIAIAIAIAIAIAIAIAIAIAIAIABABA",
"BABABABABABABABABABABABABABABABABABABABABABA",
"BABABABABABABABABABABABABABABABABABABABABABA"};
