/* XPM */
static const char *drill_xpm[]={
"65 52 38 1",
". c None",
"# c #000000",
"D c #636363",
"G c #979797",
"a c #000000",
"E c #191919",
"F c #656565",
"H c #999999",
"g c #000000",
"p c #111111",
"c c #434343",
"C c #666666",
"J c #878787",
"I c #989898",
"b c #000000",
"s c #0c0c0c",
"v c #191919",
"l c #262626",
"y c #330000",
"f c #333333",
"q c #3f3f3f",
"o c #4c4c4c",
"t c #595959",
"B c #660000",
"d c #666666",
"n c #727272",
"r c #7f7f7f",
"k c #8c8c8c",
"A c #990000",
"e c #999999",
"j c #a5a5a5",
"i c #b2b2b2",
"m c #bfbfbf",
"z c #cc0000",
"h c #cccccc",
"u c #d8d8d8",
"w c #e5e5e5",
"x c #ffffff",
"...............................#aabbc............................",
"............................#abbddeefbg#.........................",
"...........................gbdehhijekdlbg........................",
"..........................gfhhmieeknddofbp.......................",
".........................gfhhjeeenddddqfbb#......................",
".......................#gfhhjeerddddddffbbb......................",
"......................#bdhmjeknddddddoffbbbg.....................",
".....................#behmeerddddddddoffbbbbg....................",
"....................#behiekndddddddddfffsbbbbg...................",
"...................gbehjerdddddddddddffflsbbssa..................",
"..................gfhhjendddddddddddofffffffflba.................",
".................gfhhjenddddddddddddqffffffffolbg#...............",
"................gfhhjendddddddddddddffffffotdddfbba..............",
"...............gfhueendddddddddddddoffffqddddddddvbg#............",
"..............gfhmwwndddddddddddddtfffffddddddddddovbg#..........",
".............gfhmeeuxkddddddddddddqffffftdddddnnddddovbg#........",
"............gfhheendkxiddddddddddtffffffoddddeeeknddddovbg#......",
"...........gbehuendddkuudddddddddfffffffqddddeeeeeerddddovbg.....",
"..........gbehjwukddddduudddddddqffffffffodddeeeeeeeerddddobg....",
".........#bdhjkdixkddddduudddddofffffffffftddneeeeeeeekddddobg...",
"........#bfhikdddkxudddddiddddtffffffffffffdddneeeeeeeeenddddvg#.",
".......#bfhuhdddddduudddddddddqffffflvfffffqddddkeeeeeeeerddddvb.",
".......abemiuudddddduudddddddqffflvbbybbvlffoddddkeeeeeeeeddddfsa",
"........gbnnduxkddddduidddddtfffsbbbzzzAbbsvftddddkeeeeeeerddtfvg",
".........gbdddkxuddddkkddddtfffsg.agbyByg.agbstddddkeeeeeerddoffb",
"........#bbvdddduiddddddddtfffsg.....aaa#....gboddddeeeeeenddqfvg",
".......#bbbbfdddkxkddddddtfffsg...............gbvdddneeeeedddffsa",
"......abbbbbbodddkxdddddtfffvg.................abddddnkeenddqflb.",
".......gbbbbbbodddiddddtffflb#..................gfdddddrnddtffsa.",
"........vbbbbbvdddddddtffflb#...................#bdddddddddffvg..",
".......Crfbbbbbvddddddqfffsa.....................gfdddddddqflb#..",
"......drhhfbbbbbfddddqfffsg......................abddddddqflb#...",
"......Ddhhhfbbbbboddqfffvg........................bfddoqfflb#....",
".......Crhhhfbbbbbdqffflb#........................absffffvbE.....",
".......goehidgbbggsfffvb#..........................abbvsbsp......",
".....#ggDdedD.bg..gsvbg#.............................#aaa........",
"....#ba..FdD.......bg#...........................................",
"...#b#...........................................................",
"..#b#............................................................",
".#b#.............................................................",
"ab#..............................................................",
"a#...............................................................",
".................................................................",
".................................................................",
".................................................................",
".................................................................",
".................................................................",
"....................GHHHHHHHHHHHHHHHHHHHHHHHHHHHG................",
"........HHHHIeeeerrrrrrrrrrrrrrrrrrrrrrrrrrrrrrrrrrreeeeIHHHH....",
".....JrrdddddddddddddddddddddddddddddddddddddddddddddddddddddrrJ.",
".....GHHrrrrrrrrndddddddddddddddddddddddddddddddddddnrrrrrrrrHHG.",
"............GHHHHHHHIeeeeeeeeeeeeeeeeeeeeeeeeeeeIHHHHHHHG........"};
