/* XPM */
static const char *examine_xpm[] = {
/* width height ncolors chars_per_pixel */
"22 22 140 2",
/* colors */
"AA s bg c None",
"BA c #050505050505",
"CA c #060608080A0A",
"DA c #1B1B1B1B1B1B",
"EA c #191919191919",
"FA c #222222222222",
"GA c #262626262727",
"HA c #2A2A2A2A2A2A",
"IA c #202020202020",
"JA c #2B2B2B2B2B2B",
"KA c #212125252828",
"LA c #222220202020",
"MA c #0B0B0B0B0B0B",
"NA c #282828282828",
"OA c #2E2E2E2E2E2E",
"PA c #2E2E2E2E2F2F",
"AB c #414141414141",
"BB c #313131313232",
"CB c #323232323232",
"DB c #434343434343",
"EB c #282828282929",
"FB c #545454545454",
"GB c #2F2F2D2D2C2C",
"HB c #393939393939",
"IB c #2C2C2C2C2C2C",
"JB c #30302F2F2F2F",
"KB c #323233333434",
"LB c #2F2F2F2F3030",
"MB c #343434343434",
"NB c #343436363737",
"OB c #4F4F4F4F4F4F",
"PB c #474747474242",
"AC c #373737373737",
"BC c #3B3B3B3B3B3B",
"CC c #4B4B4A4A4949",
"DC c #626262626262",
"EC c #454545454545",
"FC c #525252525252",
"GC c #646464646464",
"HC c #3C3C3C3C3D3D",
"IC c #3A3A3C3C3D3D",
"JC c #161616161616",
"KC c #3D3D3C3C3B3B",
"LC c #3E3E41414141",
"MC c #404040404141",
"NC c #646464646363",
"OC c #515151515252",
"PC c #3A3A3A3A3A3A",
"AD c #565656565656",
"BD c #262626262626",
"CD c #454545454646",
"DD c #474744444242",
"ED c #4D4D4D4D4D4D",
"FD c #898985858383",
"GD c #1D1D1D1D1D1D",
"HD c #4A4A4A4A4C4C",
"ID c #787878787878",
"JD c #4A4A4A4A4B4B",
"KD c #4A4A4A4A4A4A",
"LD c #4B4B4B4B4B4B",
"MD c #6F6F6F6F6F6F",
"ND c #ACACA9A9A5A5",
"OD c #878787878787",
"PD c #797979797979",
"AE c #404040404040",
"BE c #989898989898",
"CE c #9A9A9A9A9A9A",
"DE c #363636363636",
"EE c #737373737474",
"FE c #818181818181",
"GE c #212121212121",
"HE c #B1B1B1B1B2B2",
"IE c #A2A2A2A2A4A4",
"JE c #7F7F7F7F7F7F",
"KE c #9E9E9E9E9F9F",
"LE c #ABABABABABAB",
"ME c #6A6A6A6A6A6A",
"NE c #C3C3C3C3C7C7",
"OE c #6E6E6E6E6D6D",
"PE c #ACACACACACAC",
"AF c #919191919191",
"BF c #CCCCCCCCD0D0",
"CF c #E2E2E2E2E4E4",
"DF c #E7E7E5E5E7E7",
"EF c #101010101010",
"FF c #171717171717",
"GF c #252525252525",
"HF c #313131313131",
"IF c #3E3E3E3E3E3E",
"JF c #7C7C7B7B7979",
"KF c #A3A3A3A3A2A2",
"LF c #ADADADADAFAF",
"MF c #C8C8C8C8C8C8",
"NF c #CFCFCFCFD1D1",
"OF c #D5D5D5D5D5D5",
"PF c #D5D5D5D5D7D7",
"AG c #DADADADAD8D8",
"BG c #DADADADADADA",
"CG c #DADADADADBDB",
"DG c #DBDBDBDBE1E1",
"EG c #E0E0E0E0E1E1",
"FG c #E0E0E0E0E3E3",
"GG c #E0E0E0E0E6E6",
"HG c #E1E1E1E1E3E3",
"IG c #E3E3E3E3E7E7",
"JG c #E3E3E3E3E9E9",
"KG c #E4E4E4E4E6E6",
"LG c #E4E4E4E4E9E9",
"MG c #E6E6E6E6E9E9",
"NG c #E6E6E6E6EAEA",
"OG c #E7E7E7E7EAEA",
"PG c #E7E7E7E7ECEC",
"AH c #E7E7E7E7EDED",
"BH c #E9E9E9E9ECEC",
"CH c #E9E9E9E9EDED",
"DH c #EAEAEAEAEDED",
"EH c #EAEAEAEAEFEF",
"FH c #ECECECECEDED",
"GH c #ECECECECEFEF",
"HH c #EDEDEDEDEFEF",
"IH c #EDEDEDEDF0F0",
"JH c #EFEFEFEFF0F0",
"KH c #EFEFEFEFF2F2",
"LH c #EFEFEFEFF4F4",
"MH c #F0F0F0F0F2F2",
"NH c #F0F0F0F0F4F4",
"OH c #F2F2F2F2F4F4",
"PH c #F2F2F2F2F5F5",
"AI c #F2F2F2F2F6F6",
"BI c #F4F4F4F4F5F5",
"CI c #F5F5F5F5F6F6",
"DI c #F6F6F6F6F6F6",
"EI c #F6F6F6F6F9F9",
"FI c #F9F9F9F9F9F9",
"GI c #F9F9F9F9FAFA",
"HI c #FAFAFAFAFAFA",
"II c #FAFAFAFAFBFB",
"JI c #FBFBFBFBFAFA",
"KI c #FBFBFBFBFEFE",
"LI c #FEFEFEFEFEFE",
/* pixels */
"AAAAAAHEFBOAADPDMDBCFBHEAAAAAAAAAAAAAAAAAAAA",
"AAAAHEHAPDLFNFBGCGOFPEFCHEAAAAAAAAAAAAAAAAAA",
"AAHEHAAFAGLIKIIIHIHICIPFFCHEAAAAAAAAAAAAAAAA",
"AAIAJEKGFIBIBIBIBIOHMHMHEGFBHEAAAAAAAAAAAAAA",
"HEOCMFCIDIJICIBIBIBIOHJHBHHEFBAAAAAAAAAAAAAA",
"GAEEHGOHBICIMHMHKHKHMHMHFHEGDBAAAAAAAAAAAAAA",
"BBKEJHMHIHKHKHKHKHKHIHIHHHKGDCAAAAAAAAAAAAAA",
"CBLEMGPGGHKHKHKHKHIHGHBHIGFGGCAAAAAAAAAAAAAA",
"PAFEIGIGNGBHDHEHDHPGLGGGDGIGOBAAAAAAAAAAAAAA",
"HEECIGAHCHGHKHKHIHEHPGLGJGBFFBAAAAAAAAAAAAAA",
"AAFAIELHIHNHBICIPHKHDHOGPHNCHEAAAAAAAAAAAAAA",
"AAHEHBNEMHEIIIIIEIOHNHAIKFPBAAAAAAAAAAAAAAAA",
"AAAAHEFBNDDFIIKIKIGICFODMEJFCCFBAAAAAAAAAAAA",
"AAAAAAAAHEFBFDBECEIDFBAAABOEIFAEFBAAAAAAAAAA",
"AAAAAAAAAAAAAAAAAAAAAAAAAAACBDABDEFBAAAAAAAA",
"AAAAAAAAAAAAAAAAAAAAAAAAAAAAPCDAHFJAFBAAAAAA",
"AAAAAAAAAAAAAAAAAAAAAAAAAAAAAACBFFGFIFFBAAAA",
"AAAAAAAAAAAAAAAAAAAAAAAAAAAAAAAABDEFGFIFFBAA",
"AAAAAAAAAAAAAAAAAAAAAAAAAAAAAAAAAAGDMAGFIFFB",
"AAAAAAAAAAAAAAAAAAAAAAAAAAAAAAAAAAAAJCBAIFFB",
"AACAKAKBCBNBMBGBJBPABBBBLBOAOAIBEBNAEAGEIFFB",
"BALAJAICLCKCDDHDKDJDJDLDJDJDJDEDCDMCHCOAFBFB"};
