/* XPM */
static const char *help_xpm[] = {
/* width height ncolors chars_per_pixel */
"22 23 34 2",
/* colors */
"AA c #FFFFFFFFFFFF",
"BA c #FFFFCECECECE",
"CA c #FFFFBDBDBDBD",
"DA c #FFFFADADADAD",
"EA c #FFFF9C9C9C9C",
"FA c #FFFF8C8C8C8C",
"GA c #FFFF7B7B7B7B",
"HA c #FFFF6B6B6B6B",
"IA c #FFFF5A5A5A5A",
"JA c #FFFF4A4A4A4A",
"KA c #FFFF31313131",
"LA c #FFFF29292929",
"MA c #FFFF18181818",
"NA c #FFFF08080808",
"OA c #EFEF9C9C9C9C",
"PA c #EFEF73737373",
"AB c #EFEF6B6B6B6B",
"BB c #EFEF5A5A5A5A",
"CB c #EFEF4A4A4A4A",
"DB c #EFEF00000000",
"EB c #E7E739393939",
"FB c #DEDE29292929",
"GB c #DEDE10101010",
"HB c #DEDE00000000",
"IB c #CECE18181818",
"JB c #CECE08080808",
"KB c #ADAD00000000",
"LB c #9C9C00000000",
"MB c #8C8C00000000",
"NB c #7B7B00000000",
"OB c #6B6B00000000",
"PB c #5A5A00000000",
"AC c #4A4A08080808",
"BC s bg c None",
/* pixels */
"BCBCBCBCBCBCBCBCBCBCBCBCBCBCBCBCBCBCBCBCBCBC",
"BCBCBCBCBCBCNBNBPBPBPBPBPBPBNBNBBCBCBCBCBCBC",
"BCBCBCBCBCNBMBPAGAGAPAGAGAGAGANBNBBCBCBCBCBC",
"BCBCBCBCNBIBCABABABABABABABABADAKBNBBCBCBCBC",
"BCBCBCNBLACACACACADACADACADACACACAFBNBBCBCBC",
"BCBCNBJACACACABADAAAAAAAAAAABACACADAKANBBCBC",
"BCOBHADADACACAAAAAAAAAAAAAAAAACACACADAHAOBBC",
"NBIADAFAEAEAAAAAAAAAAAAAAAAAAAAAEAGAFADAIANB",
"NBIAFAFAFAEAAAAAAAAAEAEAAAAAAAAAOAGAEAGAMANB",
"NBIAFAGAGAGAAAAAAAEAEAEAAAAAAAAAFAFAIANANANB",
"NBJAGAGAGAFAPAPAGAGAGAAAAAAAAAFAIALANANANANB",
"NBLAHAGAHAGAGAGAGAIAAAAAAAAAIAKAMAMANANANANB",
"NBLALALAIAIAIAIAIALAAAAAAAAANANAMAMAMAMANANB",
"NBNANANANANANANANAAAAAAAAANANANANANAMAMAMANB",
"NBNANANAKAKAKAKAKAAAAAAAAAKAKANANANALALAMANB",
"NBHBLAKALACBCBCBCBCBCBCBCBCBCBKAKAKAKAKAGBNB",
"NBLBJBLAEBCBCBCBCBAAAAAAAAHAABCBCBJACBIBKBNB",
"BCNBLBJBJACBJAIAGAAAAAAAAAFAFAABHAHAIBLBNBBC",
"BCBCNBNBJBCBGAGAFAAAAAAAAACADAEAGAJBMBNBBCBC",
"BCBCBCNBPBDBEBBBBBABABABABABABCBHBNBNBBCBCBC",
"BCBCBCBCNBACHBDBHBDBDBDBDBHBDBHBPBNBBCBCBCBC",
"BCBCBCBCBCNBNBACACACACACACACACNBNBBCBCBCBCBC",
"BCBCBCBCBCBCBCBCBCBCBCBCBCBCBCBCBCBCBCBCBCBC"};
