/* XPM */
static const char *import_xpm[] = {
/* width height ncolors chars_per_pixel */
"25 25 122 2",
/* colors */
"AA c #444444444747",
"BA c #494947474343",
"CA c #00007F7F0000",
"DA c #515151515151",
"EA c #575757576060",
"FA c #585858585D5D",
"GA c #585859595D5D",
"HA c #59595A5A5E5E",
"IA c #5B5B5A5A5D5D",
"JA c #68685A5A3B3B",
"KA c #5B5B5C5C5F5F",
"LA c #64645D5D4C4C",
"MA c #5C5C5D5D6262",
"NA c #5F5F5F5F6262",
"OA c #676762625D5D",
"PA c #6C6C69696565",
"AB c #6B6B6C6C6E6E",
"BB c #78786B6B5454",
"CB c #8D8D6C6C1C1C",
"DB c #6F6F6C6C6F6F",
"EB c #71716E6E6868",
"FB c #0000BFBF0000",
"GB c #7D7D70705858",
"HB c #727272727878",
"IB c #757573737171",
"JB c #767676767575",
"KB c #7A7A76766E6E",
"LB c #868676765B5B",
"MB c #7D7D7B7B7C7C",
"NB c #79797C7C8282",
"OB c #8D8D7B7B5555",
"PB c #7C7C7C7C7F7F",
"AC c #9F9F7B7B2C2C",
"BC c #7D7D7D7D8080",
"CC c #7F7F7E7E7D7D",
"DC c #81817F7F8383",
"EC c #7F7F80808D8D",
"FC c #818181818686",
"GC c #9C9C80804646",
"HC c #9B9B82824949",
"IC c #888886868585",
"JC c #888888888888",
"KC c #8C8C89898686",
"LC c #8A8A89898C8C",
"MC c #8B8B8A8A8C8C",
"NC c #8B8B8B8B9999",
"OC c #8F8F8E8E8C8C",
"PC c #9B9B8D8D7272",
"AD c #8F8F8F8F8F8F",
"BD c #8E8E90909C9C",
"CD c #919191919696",
"DD c #939391919393",
"ED c #939393939393",
"FD c #949494949494",
"GD c #969694949494",
"HD c #989895958F8F",
"ID c #969696969797",
"JD c #CFCF92921212",
"KD c #9E9E96968484",
"LD c #B8B897975151",
"MD c #9B9B9A9A9B9B",
"ND c #9B9B9B9B9999",
"OD c #9C9C9C9C9E9E",
"PD c #C8C89B9B3636",
"AE c #9F9F9D9D9D9D",
"BE c #9E9E9E9E9E9E",
"CE c #9F9F9F9F9F9F",
"DE c #9D9D9F9FAFAF",
"EE c #A1A1A1A1A1A1",
"FE c #B4B4A2A27878",
"GE c #A4A4A4A4A5A5",
"HE c #A3A3A5A5B3B3",
"IE c #E6E6A3A30E0E",
"JE c #E8E8A4A40E0E",
"KE c #B6B6A7A78F8F",
"LE c #A9A9A9A9A9A9",
"ME c #A9A9A9A9ABAB",
"NE c #ACACACACACAC",
"OE c #ADADADADADAD",
"PE c #EDEDA9A91414",
"AF c #ADADADADAEAE",
"BF c #ADADADADAFAF",
"CF c #AEAEAEAEB1B1",
"DF c #AFAFAFAFAFAF",
"EF c #AFAFAFAFB0B0",
"FF c #ADADB0B0BFBF",
"GF c #B1B1B1B1B1B1",
"HF c #B2B2B2B2B2B2",
"IF c #F9F9B1B10F0F",
"JF c #B6B6B5B5B5B5",
"KF c #B3B3B6B6C3C3",
"LF c #FBFBB3B31111",
"MF c #FDFDB3B31313",
"NF c #FCFCB3B31616",
"OF c #FFFFB5B51111",
"PF c #C8C8B8B89B9B",
"AG c #FEFEB5B51818",
"BG c #FFFFB5B51818",
"CG c #C8C8BDBDADAD",
"DG c #BEBEBEBEC7C7",
"EG c #C0C0BFBFC0C0",
"FG c #CBCBBFBFA9A9",
"GG c #D9D9C5C59A9A",
"HG c #CDCDC6C6BCBC",
"IG c #C5C5C7C7D4D4",
"JG c #D2D2D0D0D1D1",
"KG c #D9D9D5D5D4D4",
"LG c #E6E6DADABDBD",
"MG c #DBDBDBDBDDDD",
"NG c #E6E6DADAC5C5",
"OG c #E3E3DDDDD0D0",
"PG c #E0E0DEDEDDDD",
"AH c #EAEAE4E4DCDC",
"BH c #F4F4E8E8CCCC",
"CH c #F6F6E8E8CACA",
"DH c #EDEDEBEBE5E5",
"EH c #F0F0F0F0F4F4",
"FH c #FDFDF4F4E0E0",
"GH c #FFFFF7F7E6E6",
"HH c #F8F8F8F8FAFA",
"IH s bg c None",
"JH c #000000000000",
/* pixels */
"IHIHIHIHIHJHJHIHIHIHIHJHIHIHIHIHIHIHIHIHIHIHIHIHIH",
"IHIHIHIHIHJHJHJHJHJHJHIHJHIHIHIHIHIHIHIHIHIHIHIHIH",
"IHIHJHIHJHIHJHCAJHIHIHJHJHIHIHIHIHIHIHIHIHIHIHIHIH",
"IHJHIHIHJHIHJHCACAJHIHIHIHIHIHIHIHIHIHIHIHIHIHIHIH",
"IHIHJHJHIHIHJHJHCAJHJHIHIHJHJHJHIHIHIHIHIHIHIHIHIH",
"IHIHIHJHIHIHJHFBJHFBJHIHIHIHIHIHJHIHIHIHIHIHIHIHIH",
"IHIHJHIHJHIHJHFBFBFBJHIHIHIHIHIHJHIHIHIHIHIHIHIHIH",
"IHIHIHJHIHIHJHFBFBFBJHIHIHIHJHJHJHJHJHIHIHIHIHIHIH",
"IHIHIHIHIHJHFBFBFBFBJHIHIHIHIHJHJHJHIHIHIHIHIHIHIH",
"IHIHIHIHIHJHFBFBFBFBJHIHIHIHIHIHJHIHIHIHIHIHIHIHIH",
"IHIHIHIHJHFBFBFBFBJHIHIHIHIHIHIHIHIHIHIHIHIHIHIHIH",
"IHIHIHIHJHFBFBFBJHIHIHIHIHIHIHIHIHIHIHIHIHIHIHIHIH",
"IHIHIHIHJHJHJHJHIHIHJAIHIHIHIHIHIHIHIHBGNFAGIHIHIH",
"IHIHIHIHIHIHIHIHIHIHBAFEIHIHIHIHIHJDMFJEIHIEOFIHIH",
"IHIHIHIHIHIHIHIHIHIHDBDCGGEBADGDDDACIFPDLDPELFIHIH",
"IHIHIHIHIHIHIHIHIHBEMDFAKGPFMBGEGFHDOBGCHCCBIHIHIH",
"IHIHIHIHIHIHIHIHIHBELEGAFFAHFGECICEFCFAFBFIHIHIHIH",
"IHIHIHIHIHIHIHIHIHBEOENAHECDKDJGKFNBADDFHFIHIHIHIH",
"IHIHIHIHIHIHIHIHIHCENEHADGLGKBDAJFDHHGKCOCIHIHIHIH",
"IHIHIHIHIHIHIHIHIHBEMEKANGGHHHMGEGOGFHBHKEGBIHIHIH",
"IHIHIHIHIHIHIHIHIHBEAEOACHEHIGDENCFCBCPBHBPABBIHIH",
"IHIHIHIHIHIHIHIHIHNDCCPCPGBDEAIAABJCIDODEEIHIHIHIH",
"IHIHIHIHIHIHIHIHIHJBLACGMAAAIBMCEDEDFDFDFDIHIHIHIH",
"IHIHIHIHIHIHIHIHIHIHLBLCIHIHIHIHIHIHIHIHIHIHIHIHIH",
"IHIHIHIHIHIHIHIHIHIHIHIHIHIHIHIHIHIHIHIHIHIHIHIHIH"};
