/* XPM */
static const char *open_xpm[] = {
/* width height ncolors chars_per_pixel */
"22 25 14 1",
/* colors */
"A c #FFFFFFFFFFFF",
"B c #EFEFEFEFCECE",
"C c #7EA3BF65E9FD",
"D c #BDBDBDBDDEDE",
"E c #9494B5B5D6D6",
"F c #73737B7B9C9C",
"G c #6B6B8484D6D6",
"H c #5A5A9C9CEFEF",
"I c #424252528C8C",
"J c #39397373DEDE",
"K c #101039399C9C",
"L c #2E1430D27B7B",
"M s bg c None",
"N c #511651165116",
/* pixels */
"MMMMMMMMMMMMMMMMMMMNNN",
"MMMMMMMMMMMMMMMMMMMMNN",
"MMMMMMMMMMMMMMMMMMMNMN",
"MMMMMMMMMMMMMMMMMMNMMM",
"MMMMMMMMMMMMMFFMMNMMMM",
"MMMMMMMMMMMFFBDFMMMMMM",
"MMMMMMMMMMFBDBBDFMMMMM",
"MHHHHHHHHFDBBABBFMMMMM",
"MHCCCCCGFBBAABABDFMMMM",
"MHCCCCGBAAAAAABABIFMMM",
"MHCCCEAAAAAAAAEEEHHHHI",
"MHCCEAAAAAAAAAGCHHHJJL",
"MHCCHHHHHHHHHHJHHHJJKL",
"MHCCHCCCCCCCCCHHJJJJKL",
"MHCHHCCCCCCCHHHJJJJKLM",
"MHJHCCCCCCHHHHJJJJKKLM",
"MHJHCCCCCCHHHJJJJJKKLM",
"MHJHCCCCCHHJJJJJJKKLLM",
"MKJCCCCCHHJJJJJJJKKLMM",
"MKKAAAAAAAAAABBDDDFLMM",
"MKKAAAAAAABBBBDDDFLLMM",
"MKAAAAAABBBBBDDDFFLMMM",
"MKKKKKKKKKKKKLLLLLMMMM",
"MMMMMMMMMMMMMMMMMMMMMM",
"MMMMMMMMMMMMMMMMMMMMMM"};
