/* XPM */
static const char *orb_xpm[] = {
"16 16 65 2",
"Qt c None",
"AA c #FFFFFFFFFFFF",
"BA c #FFFFEFEFCECE",
"CA c #FFFFB5B50808",
"DA c #FFFFADAD0808",
"EA c #F7F7EFEFD6D6",
"FA c #EFEFEFEFEFEF",
"GA c #EFEFA5A50808",
"HA c #E7E7DEDECECE",
"IA c #E7E7A5A51010",
"JA c #DEDEDEDEE7E7",
"KA c #DEDE9C9C0808",
"LA c #CECECECEDEDE",
"MA c #C6C6C6C6C6C6",
"NA c #C6C6B5B59494",
"OA c #C6C68C8C0808",
"PA c #BDBDBDBDCECE",
"AB c #BDBDBDBDB5B5",
"BB c #BDBDADAD9C9C",
"CB c #B5B5A5A57B7B",
"DB c #ADADADADB5B5",
"EB c #ADADADADADAD",
"FB c #ADAD84842929",
"GB c #A5A5A5A59C9C",
"HB c #A5A594947B7B",
"IB c #A5A57B7B2929",
"JB c #9C9C9C9CADAD",
"KB c #9C9C9C9C9C9C",
"LB c #9C9C8C8C7373",
"MB c #94948C8C9494",
"NB c #949484846363",
"OB c #8C8C8C8C9494",
"PB c #8C8C8C8C8C8C",
"AC c #848473735A5A",
"BC c #848463632929",
"CC c #7B7B7B7B8C8C",
"DC c #7B7B7B7B7B7B",
"EC c #7B7B73735252",
"FC c #7B7B6B6B5252",
"GC c #7B7B6B6B4A4A",
"HC c #7B7B63632121",
"IC c #7B7B5A5A0000",
"JC c #737363633939",
"KC c #6B6B73737B7B",
"LC c #6B6B6B6B6B6B",
"MC c #6B6B5A5A3131",
"NC c #5A5A5A5A5A5A",
"OC c #5A5A52524242",
"PC c #5A5A52523939",
"AD c #5A5A42420000",
"BD c #4A4A4A4A5252",
"CD c #4A4A4A4A4A4A",
"DD c #4A4A42423939",
"ED c #4A4A39390000",
"FD c #424239392929",
"GD c #393939393939",
"HD c #393929290000",
"ID c #313129291818",
"JD c #292921210000",
"KD c #292918180000",
"LD c #212121212121",
"MD c #212118181818",
"ND c #181818181818",
"OD c #181810100000",
"PD c #101008080000",
"QtQtQtQtQtQtQtQtQtQtQtQtQtQtQtQt",
"QtQtQtQtQtQtQtQtQtQtKDEDEDEDQtQt",
"ODGCGCQtQtQtQtQtQtOAOAICADIBGAGA",
"BDDDNBECGDNCNCNCHCIBDAHCMCKADADA",
"KBGDABNBCDLCPBPBFCCAKAMCBCGAIAIA",
"KBDCCCEALBDCEBEBKBACIBFBIBADPDQt",
"EBOBBDLQtABBKCOBEBEBDBDBEBQtQtQt",
"KBEBBDDBKBNAJAJBKCKBEBEBEBQtQtQt",
"EBKBBDLAABDDNCMAFAABPBCCKBMDQtQt",
"JBKBNCEABAFADBMBABBABANAACLDGCQt",
"GBPBKCBAAAFALAMALAABABDBOBLBGCQt",
"EBNCCBFAPACCNCCDCDKCDCDCPBQtQtQt",
"DCPCHAPBGDNCNCNCNCNCNCNCNCQtQtQt",
"DDHBLCPBGDNCNCNCNCNCNCNCNCQtQtQt",
"OCDDQtQtQtQtQtQtQtQtQtQtQtQtQtQt",
"QtQtQtQtQtQtQtQtQtQtQtQtQtQtQtQt"};
