/* XPM */
static const char *orb32_xpm[] = {
/* width height ncolors chars_per_pixel */
"32 32 86 2",
/* colors */
"AA c #FFFFFFFFFFFF",
"BA c #FFFFFFFFEFEF",
"CA c #FFFFEFEFD6D6",
"DA c #FFFFEFEFCECE",
"EA c #FFFFEFEFBDBD",
"FA c #FFFFE7E7ADAD",
"GA c #FFFFDEDEADAD",
"HA c #FFFFDEDE9C9C",
"IA c #FFFFDEDE8484",
"JA c #FFFFB5B51818",
"KA c #FFFFB5B50808",
"LA c #F7F7B5B52121",
"MA c #F7F7ADAD0808",
"NA c #EFEFEFEFF7F7",
"OA c #EFEFEFEFEFEF",
"PA c #EFEFE7E7DEDE",
"AB c #EFEFCECE7B7B",
"BB c #EFEFADAD1010",
"CB c #E7E7C6C69494",
"DB c #E7E7A5A50808",
"EB c #DEDEDEDEE7E7",
"FB c #DEDEDEDEDEDE",
"GB c #DEDEBDBD8C8C",
"HB c #DEDEBDBD7B7B",
"IB c #CECECECEDEDE",
"JB c #CECECECECECE",
"KB c #CECEBDBD9C9C",
"LB c #CECEB5B58C8C",
"MB c #CECEADAD6363",
"NB c #CECEA5A55A5A",
"OB c #C6C6ADAD7373",
"PB c #C6C68C8C0808",
"AC c #BDBDC6C6CECE",
"BC c #BDBDBDBDC6C6",
"CC c #B5B5B5B5B5B5",
"DC c #ADADB5B5C6C6",
"EC c #ADADADADC6C6",
"FC c #ADADADADBDBD",
"GC c #ADADADADADAD",
"HC c #ADADA5A59C9C",
"IC c #ADAD94945A5A",
"JC c #9C9CA5A5B5B5",
"KC c #9C9C9C9CB5B5",
"LC c #9C9C9C9C9C9C",
"MC c #94949494ADAD",
"NC c #949494948C8C",
"OC c #94947B7B4A4A",
"PC c #94946B6B2121",
"AD c #8C8C8C8CA5A5",
"BD c #8C8C8C8C9C9C",
"CD c #8C8C8C8C8C8C",
"DD c #8C8C84847B7B",
"ED c #8C8C73733939",
"FD c #84847B7B6B6B",
"GD c #84846B6B2929",
"HD c #7B7B84849494",
"ID c #7B7B7B7B8C8C",
"JD c #7B7B7B7B7B7B",
"KD c #7B7B63633131",
"LD c #73736B6B6B6B",
"MD c #737363634A4A",
"ND c #73735A5A2121",
"OD c #6B6B73737B7B",
"PD c #6B6B6B6B7373",
"AE c #6B6B6B6B6B6B",
"BE c #6B6B63635252",
"CE c #6B6B52522121",
"DE c #6B6B52521010",
"EE c #63635A5A5252",
"FE c #5A5A5A5A6B6B",
"GE c #5A5A5A5A5A5A",
"HE c #5A5A5A5A4A4A",
"IE c #52524A4A4A4A",
"JE c #4A4A4A4A5252",
"KE c #4A4A4A4A4A4A",
"LE c #424231310000",
"ME c #393939394242",
"NE c #393939393939",
"OE c #393931311010",
"PE c #313129292121",
"AF c #292929293131",
"BF c #292929292929",
"CF c #292918180000",
"DF c #181818181818",
"EF c #101008080000",
"FF s bg c None",
/* pixels */
"FFFFFFFFFFFFFFFFFFFFFFFFFFFFFFFFFFFFFFFFFFFFFFFFFFFFFFFFFFFFFFFF",
"FFFFFFFFFFFFFFFFFFFFFFFFFFFFFFFFFFFFFFFFFFFFFFFFFFFFFFFFFFFFFFFF",
"FFFFFFFFFFFFFFFFFFFFFFFFFFFFFFFFFFFFFFFFFFFFFFFFFFFFFFFFFFFFFFFF",
"FFFFDEFFFFFFFFFFFFFFFFFFFFFFFFFFFFFFFFFFFFFFFFFFFFFFFFFFFFFFFFFF",
"FFFFOEOCFFFFFFFFFFFFFFFFFFFFFFFFFFFFFFFFFFFFFFFFFFFFFFFFFFFFFFFF",
"FFFFNEEDFDFFFFFFFFFFFFFFFFFFFFFFFFFFFFFFFFJAJAJAJAJAJAJAFFFFFFFF",
"FFFFFFNEHBMDFFFFFFFFFFFFFFFFFFFFFFFFFFJAJAJAJAJABBBBJAJAKAJAFFFF",
"FFFFFFNEJDABABFFFFFFFFFFFFFFFFFFFFFFJAJAJAKAPBFFFFFFPBMAJAJAJAFF",
"FFFFFFNENEJBABABFFFFFFFFFFFFFFFFFFEFJAKAKAPBFFFFFFFFPBJAKAKAJAFF",
"FFAEDDFEBFMCPAABKEAEJDJDCDJDDDIDDDEEMAKAJADBDDJDCDOCJAKAJABBFFFF",
"FFLCFCDDNEPDIBCAHBGEAEGCGCCCFCGCCCJDNDBBJAKAKALAJAJAMAMAJAFFFFFF",
"FFLCGCLCJENEECOADAGBPDKEGCCCGCCCGCGCJDMECEGDPCPCGDGDLEFFFFFFFFFF",
"FFLCGCGCGEBFFCBCAAEALBBDNEJDCCGCCCCCGCGCLCIDCDJDCDNCFFFFFFFFFFFF",
"FFLCCCGCJDBFADDCOANAGAKBJCFEKEHCCCGCGCFCGCCCGCCCGCFCFFFFFFFFFFFF",
"FFLCGCGCCDBFHDFCFCFBAAABIBFCMCKEGEGCCCGCCCGCCCCCCCGCFFFFFFFFFFFF",
"FFLCCCCCCDBFIDJCBCGEFBBAHAOAIBJCIDNEODCCGCCCCCGCCCCCFFFFFFFFFFFF",
"FFLCGCGCLCNEPDECOAIDNEPEGECCAANAIBDCJDNEJDGCGCCCGCCCFFFFFFFFFFFF",
"FFLCGCCCCDAFPDBCNAOAODNEAENEGEOAAAAAEBIBCDKEAEGCCCGCFFFFFFFFFFFF",
"FFLCCCGCCDBFHDIBAAHAIADDKEKENENEFBOABADAPAFBBDNEAEGCFFFFFFFFFFFF",
"FFLCCCGCJDBFMCNAHADAAAAAEBCCLCPDBEAEHAEAFAHAABOBDDNEBFFFFFFFFFFF",
"FFLCGCCCODBFBCDAFAAAAAAAAAAAAAAAAAAAAAAAAAAAAAPALBMBICIEBFFFFFFF",
"FFLCCCFCBEBFIBIAAAAAAANAOAEBIBIBIBEBOANANAAANAOAIBECGCOBMBNDBFFF",
"FFLCGCHCJEJEGBCAAAAAEBIBJCJCKCKCIDPDJEKENENENEAFNENENEMEJELDPCFF",
"FFLCGCCDAFJDIAAAAAIBECMCADFEAFBFBFNEKEGEGEFEAEAEAECDFFFFFFFFFFFF",
"FFLCGCAEBFMBOANABCJCIDNEBFNEGEGEODCDLCLCGCGCGCGCGCGCFFFFFFFFFFFF",
"FFNCLCHEIECBAABCHDNEBFKEFEDDLCGCCCGCGCCCGCGCCCGCCCCCFFFFFFFFFFFF",
"FFLCJDBFNBNAACJEBFKEPDLCHCFCGCGCCCCCGCCCCCGCCCCCGCCCFFFFFFFFFFFF",
"FFNEAFDEDABCBFDFDFNEJEHEGEGEGEGEGEGEGEGEGEGEGEGEGEGEFFFFFFFFFFFF",
"FFFFCFGBGCPDFFFFFFFFFFFFFFFFFFFFFFFFFFFFFFFFFFFFFFFFFFFFFFFFFFFF",
"FFFFKDLCPDFFFFFFFFFFFFFFFFFFFFFFFFFFFFFFFFFFFFFFFFFFFFFFFFFFFFFF",
"FFFFHCPDFFFFFFFFFFFFFFFFFFFFFFFFFFFFFFFFFFFFFFFFFFFFFFFFFFFFFFFF",
"FFFFFFFFFFFFFFFFFFFFFFFFFFFFFFFFFFFFFFFFFFFFFFFFFFFFFFFFFFFFFFFF"};
