/* XPM */
static const char *quit_xpm[] = {
/* width height ncolors chars_per_pixel */
"32 32 16 1",
/* colors */
"A c #FFFFFFFFFFFF",
"B c #C6C6C6C6C6C6",
"C c #949400000000",
"D c #848484848484",
"E s bg c None",
"F c #D64C21E82E8D",
"G c #000000000000",
"H c #FFFF00000000",
"I c #000000000000",
"J c #D9C545E745E7",
"K c #FFFF61CD5EC8",
"L c #000000000000",
"M c #276227622762",
"N c #6CE36CE36CE3",
"O c #367136713671",
"P c #000000000000",
/* pixels */
"EEEEEEEEEEEEGGGGGGGGGGGGGGGGGGGE",
"EEEEEEEEEEEEGOOOMOMOMPMGMGGHCGGE",
"EEEEEEEEEEEEGNOOOMOMOMPMGGHCKGGE",
"EEEEEEEEEEEEGONONOOOMOMPGHCKKGGE",
"EEEEEEEEEEGEGNONONOOOMOGHCKKKGGE",
"EEEEEEEEEGBGGNNONONONOGHCKKKJGGE",
"EEEEEEEEEGABGDNNNNONOGHCKKKJKGGE",
"EEEEEEEEEGAABGNDNNNNNGHCKKKKJGGE",
"EEEEEEEEEGAAABGNNNNNNGHCKKKJKGGE",
"EGGGGGGGGGAAAABGNDNDNGHCKKKJKGGE",
"EGAAAAAAAAAAAAABGNDNDGHCKKJKJGGE",
"EGAAAAAAAAAAAAABBINDNGHCKKKJJGGE",
"EGAAAAAAAAAAAABBBGDNDLHCKKJKJGGE",
"EGBBBBBBBBAAABBBGDDDDGHCJKJJJGGE",
"EGGGGGGGGGBABBBGDDDDDGHCKGGJJGGE",
"EEEEEEEEEGBBBBGDDDDDDGHCGAGJJGGE",
"EEEEEEEEEGBBBGDDDDDDDGHCGBGJJGGE",
"EEEEEEEEEGBBGDDDDDDDDGHCJGGJFGGE",
"EEEEEEEEEGBGGDDDDDDDDGHCJJJFJGGE",
"EEEEEEEEEEGEGDDDDDDDDGHCJJFJFGGE",
"EEEEEEEEEEEEGDDDDDDDDGHCJJJJFGGE",
"EEEEEEEEEEEEGGGGGGGIIGHCJJFFFGGE",
"EEEEEEEEEEEEGAADDAAADGHCFJJFCGGE",
"EEEEEEEEEEEEGDDAAADDAGHCJFFFCGGE",
"GGGGGGGGGGGGGAAADDAAAGHCFFFCCGGG",
"DAAADDAAADDAAADDAAADDGHCJJFCGADA",
"AADDAAADDAAADDAAADDAAGHCJFFGADAA",
"DDAAADDAAADDAAADDAAADGHCFFGDDADD",
"DAADDAAADDAAADDAAADDAGHCJGDAAAAD",
"DDDAAADDAAADDAAADDAAAGHCGAAADDDD",
"DDDDDDAAADDAAADDAAADDGGGAADDAADD",
"DDDDDDDDDDDDDDDDDDDDDDDDDDDDDDDD"};
