/* XPM */
static const char *switch_xpm[] = {
/* width height ncolors chars_per_pixel */
"25 25 107 2",
/* colors */
"AA c #000018185C5C",
"BA c #00001E1E6262",
"CA c #00001F1F5E5E",
"DA c #00001F1F6666",
"EA c #000024246C6C",
"FA c #000027276E6E",
"GA c #000028287070",
"HA c #000034348A8A",
"IA c #000035358E8E",
"JA c #02024646ACAC",
"KA c #02024A4AACAC",
"LA c #02024C4CB0B0",
"MA c #01014D4DB5B5",
"NA c #00004545F4F4",
"OA c #03034F4FB7B7",
"PA c #03035050B9B9",
"AB c #03035151BBBB",
"BB c #00004747FAFA",
"CB c #00004747FCFC",
"DB c #03035252BDBD",
"EB c #00004848FEFE",
"FB c #03035858C1C1",
"GB c #05054C4CFFFF",
"HB c #03035959C3C3",
"IB c #03035050FFFF",
"JB c #03035B5BC7C7",
"KB c #04045C5CC8C8",
"LB c #04045D5DCACA",
"MB c #04045D5DCCCC",
"NB c #07075353FFFF",
"OB c #0D0D5757FFFF",
"PB c #11115A5AFFFF",
"AC c #13135B5BFFFF",
"BC c #19195F5FFFFF",
"CC c #1D1D6767FFFF",
"DC c #1F1F6969FFFF",
"EC c #21216F6FFFFF",
"FC c #23237171FFFF",
"GC c #29297575FFFF",
"HC c #2B2B7B7BFFFF",
"IC c #31317F7FFFFF",
"JC c #35358181FFFF",
"KC c #37378282FFFF",
"LC c #35358686FFFF",
"MC c #39398888FFFF",
"NC c #3D3D8B8BFFFF",
"OC c #3D3D8F8FFFFF",
"PC c #42428D8DFEFE",
"AD c #44448E8EFEFE",
"BD c #46469090FEFE",
"CD c #46469494FEFE",
"DD c #48489999FEFE",
"ED c #4B4B9B9BFDFD",
"FD c #5050A8A8C8C8",
"GD c #5252A8A8C8C8",
"HD c #5454A9A9C8C8",
"ID c #5555AAAAC9C9",
"JD c #5757AAAAC9C9",
"KD c #5858ABABCACA",
"LD c #5C5CAAAACACA",
"MD c #5A5AACACCACA",
"ND c #5E5EAAAACACA",
"OD c #6060ABABCACA",
"PD c #6060AFAFCCCC",
"AE c #6161B0B0CDCD",
"BE c #6464B0B0CCCC",
"CE c #6363B2B2CFCF",
"DE c #6565B2B2CFCF",
"EE c #6666B3B3D0D0",
"FE c #6868B4B4D0D0",
"GE c #6969B5B5D1D1",
"HE c #6A6AB6B6D2D2",
"IE c #6D6DB7B7D3D3",
"JE c #6E6EB8B8D4D4",
"KE c #7070B9B9D4D4",
"LE c #7272BBBBD6D6",
"ME c #7373BCBCD7D7",
"NE c #7575BFBFD7D7",
"OE c #7878BEBED8D8",
"PE c #7676C0C0D8D8",
"AF c #7A7AC0C0DADA",
"BF c #7A7AC2C2DADA",
"CF c #7B7BC3C3DBDB",
"DF c #7D7DC2C2DBDB",
"EF c #7E7EC5C5DCDC",
"FF c #8080C5C5DCDC",
"GF c #8282C5C5DEDE",
"HF c #8080C7C7DEDE",
"IF c #8484C7C7E0E0",
"JF c #8686CACAE0E0",
"KF c #8989CACADFDF",
"LF c #8989CBCBE1E1",
"MF c #8B8BCCCCE1E1",
"NF c #8C8CCDCDE2E2",
"OF c #8D8DCECEE3E3",
"PF c #9090CFCFE4E4",
"AG c #9393CFCFE3E3",
"BG c #9494D2D2E6E6",
"CG c #9898D3D3E6E6",
"DG c #9898D4D4E8E8",
"EG c #9C9CD7D7E8E8",
"FG c #A2A2D5D5E8E8",
"GG c #9E9ED8D8E8E8",
"HG c #9F9FD8D8E9E9",
"IG c #A2A2DADAEAEA",
"JG s bg c None",
"KG c #000000000000",
/* pixels */
"JGJGJGJGJGJGJGJGJGJGJGJGJGJGJGJGJGJGJGJGJGJGJGJGJG",
"JGJGJGJGJGJGJGJGJGJGJGJGJGJGJGJGJGJGJGJGJGJGJGJGJG",
"JGMBMBMBMBMBMBMBMBMBMBMBMBJGJGJGJGJGKGJGJGJGJGJGJG",
"KGMBMBMBMBMBMBMBMBMBMBMBMBJGJGJGJGKGKGJGJGJGJGJGJG",
"KGMBMBMBMBMBMBMBMBMBMBMBMBJGJGJGKGKGKGKGKGKGJGJGJG",
"KGMBMBMBMBMBMBMBLBLBLBMBMBJGJGJGJGKGKGJGJGJGKGJGJG",
"KGMBMBMBLBLBKBKBKBJBJBKBJBJGJGJGJGJGKGJGJGJGJGKGJG",
"KGMBMBJBJBFBDBABOAOAMAABFBJGJGJGJGJGJGJGJGJGJGKGJG",
"KGMBLBJBPAJAIAFABAAAAACAEAJGJGJGJGJGJGJGJGJGJGKGJG",
"KGMBLBHBKAEDEDEDEDEDEDEDEDEDEDEDEDEDEDJGKGJGJGKGJG",
"KGMBJBABHAEDEDEDEDEDEDEDEDEDEDEDEDEDEDJGKGJGKGJGJG",
"KGMBJBMAGABDADADCDBDCDCDDDDDDDDDDDDDEDJGKGKGJGJGJG",
"KGMBLBLADAGCDCFCGCGCHCICLCJCKCMCNCOCPCJGKGKGKGKGJG",
"KGDADADADAEBNABBIBGBNBPBPBOBACBCCCECGCJGJGJGJGJGJG",
"JGKGKENEBFFFIFKFNFPFBGCGEGGGHGFGIGHGOBJGJGJGJGJGJG",
"JGKGEEHEKEMEOECFFFIFKFNFPFAGBGCGDGCGIBJGJGJGJGJGJG",
"JGKGPDBEEEHEJEKENEOEBFFFGFJFLFMFNFOFCBJGJGJGJGJGJG",
"JGKGKDMDODAECEEEGEIEKELEPEAFDFEFFFHFCBJGJGJGJGJGJG",
"JGKGIDJDJDKDLDNDPDCEDEFEHEIEKELEMENEJGJGJGJGJGJGJG",
"JGKGGDGDHDIDJDKDMDMDODPDAECEDEFEGEGEJGJGJGJGJGJGJG",
"JGKGFDFDGDGDHDHDIDJDKDKDMDNDPDPDPDPDJGJGJGJGJGJGJG",
"JGKGFDFDFDFDFDGDGDGDIDIDJDJDKDKDKDMDJGJGJGJGJGJGJG",
"JGKGFDFDFDFDFDFDFDFDGDGDGDGDHDIDIDIDJGJGJGJGJGJGJG",
"JGJGJGKGKGKGKGKGKGKGKGKGKGKGKGKGJGJGJGJGJGJGJGJGJG",
"JGJGJGJGJGJGJGJGJGJGJGJGJGJGJGJGJGJGJGJGJGJGJGJGJG"};
