/* XPM */
static const char *tile_xpm[]={
"41 40 177 2",
"Qt c None",
".m c #ff00ff",
".c c #ffffff",
".# c #ff7f7f",
".j c #ff7fff",
".b c #ffaaaa",
".x c #ffbfbf",
".d c #ffb6da",
".e c #e5b2cc",
".a c #e7b9d0",
"aP c #1f73b7",
".S c #979797",
".f c #3079b8",
".l c #357aba",
".i c #357bbb",
".n c #1f73b7",
".R c #999999",
".Q c #9a9a9a",
".z c #2975b8",
".w c #2b77b9",
".k c #327aba",
".g c #3e7fbc",
".h c #4181bd",
".P c #4b81af",
"aT c #050505",
"#s c #080707",
"#l c #080708",
"#3 c #080808",
"aU c #0d2132",
"aS c #0d2233",
"aR c #123c5e",
"aO c #174163",
"#r c #184163",
"#9 c #184164",
"aL c #184264",
"#k c #194264",
"#2 c #194265",
".y c #1f73b7",
"aK c #2279c0",
"am c #2680c9",
"aD c #2780c9",
"ae c #2880c9",
"aj c #2980c9",
"aC c #2a81c9",
"ai c #2b81c9",
"#1 c #2d82c9",
"aH c #2e8ddb",
"ah c #2f82c9",
"aG c #2f8ddb",
"ad c #328edb",
"ac c #338edb",
"#O c #3484c9",
"aF c #358fdb",
"ao c #3684c9",
"ab c #3890db",
"## c #3b6486",
"an c #3b86c9",
"#0 c #3b91db",
"af c #3c86c9",
"#Z c #3c91db",
"aN c #3d86c9",
"ak c #3d86ca",
"#C c #3e86c9",
"#5 c #3f87c9",
"a. c #3f87ca",
"aE c #3f8cd2",
"#8 c #3f92db",
".v c #4082c1",
"aJ c #4087ca",
"#Y c #4092db",
"aI c #4182c1",
"#W c #4287ca",
"aa c #4293dc",
".o c #4383c1",
"ag c #438dd2",
"#Q c #4488ca",
"#I c #4689ca",
"#7 c #4894dc",
"au c #498aca",
"#N c #4995dc",
"#j c #4a8aca",
"#M c #4a95dc",
"av c #4b90d3",
"as c #4d8bca",
"#T c #4d95dc",
"#L c #4e96dc",
"#t c #4f4f4f",
"at c #4f91d3",
"ap c #4f95c8",
"al c #4f96dc",
"#a c #515050",
"a# c #5297dc",
"#S c #5398dc",
".0 c #548dca",
"#6 c #5497dc",
"#K c #5699dc",
"ar c #578eca",
"#X c #5999dc",
"aQ c #5c86a8",
"aB c #5c9adc",
".H c #5d90ca",
"#B c #5d9adc",
"#R c #5e9bdc",
".1 c #5f87aa",
"aq c #5f90ca",
"#H c #5f9bdc",
"#A c #609bdc",
".u c #6291cb",
"ay c #629cdd",
"#J c #629ddc",
"aM c #6391ca",
".t c #6391cb",
".s c #6492cb",
".r c #6592cb",
"#G c #659ddd",
".q c #6692cb",
".T c #6792cb",
".p c #6793cb",
"#z c #679ddd",
"#F c #6e9fdd",
"#y c #71a1dd",
"aA c #73a1dd",
"#b c #747474",
"#i c #75a2dd",
"#q c #76a2dd",
"#h c #77a2dd",
"#p c #7aa3dd",
"ax c #7ba3dd",
"#g c #7ca4dd",
"#x c #7ea4dd",
"#V c #7fb8da",
"#o c #81a5dd",
"#f c #83a6dd",
"#E c #89a7dd",
"#n c #8aa7de",
".Z c #8aa8de",
"#. c #8ba8de",
".Y c #8ca8de",
".9 c #8ea8de",
"#w c #8ea9de",
".X c #8fa9de",
"aw c #90a9de",
".8 c #92aade",
".W c #93aade",
"#m c #95abde",
".7 c #97abde",
"#e c #98acde",
".3 c #999999",
".V c #99acde",
".2 c #9a999a",
"#v c #9bacde",
"az c #9badde",
".G c #9cadde",
".O c #9dadde",
".F c #9eadde",
".6 c #9faede",
".N c #a0aede",
".E c #a1aede",
"#D c #a2aede",
"#d c #a2afde",
".M c #a3afde",
".D c #a4afde",
".5 c #a5b0de",
"#u c #a6afdf",
".U c #a7b0de",
".L c #a7b0df",
"#4 c #a8b0de",
".C c #a8b0df",
"#c c #a9b0df",
"#P c #a9b1df",
".4 c #aab1df",
".K c #abb1df",
".B c #acb1df",
".J c #adb2df",
".A c #aeb2df",
".I c #b0b2df",
"#U c #dffdfd",
"QtQtQtQtQtQtQtQtQtQtQtQtQtQtQtQtQtQtQtQtQtQtQtQtQtQtQtQtQtQtQtQtQtQtQtQtQtQtQtQtQt",
"QtQtQtQtQtQtQtQtQtQtQtQtQtQtQtQtQtQtQtQtQtQtQtQtQtQtQtQtQtQtQtQtQtQtQtQtQtQtQtQtQt",
"QtQtQtQtQtQtQtQtQtQtQtQtQtQtQtQtQtQtQtQtQtQtQtQtQtQtQtQtQtQtQtQtQtQtQtQtQtQtQtQtQt",
"QtQtQtQt.#.a.a.a.a.a.a.a.a.a.a.a.a.a.b.cQtQt.d.a.a.a.a.a.a.a.a.a.a.a.a.e.bQtQtQtQt",
"QtQtQtQt.f.g.h.h.h.h.h.h.h.h.h.h.h.g.i.jQtQt.k.h.h.h.h.h.h.h.h.h.h.h.h.g.l.mQtQtQt",
"QtQtQtQt.n.o.p.q.r.s.t.u.u.u.u.u.u.v.w.xQtQt.y.p.p.q.r.s.t.u.u.u.u.u.u.v.z.bQtQtQt",
"QtQtQtQt.n.p.A.B.C.D.E.F.G.G.G.G.G.H.w.xQtQt.y.I.J.K.L.M.N.O.G.G.G.G.G.H.P.Q.R.SQt",
"QtQtQtQt.n.T.B.U.E.V.W.X.Y.Z.Z.Z.Z.0.1.2.3Qt.y.A.4.5.6.7.8.9#..Z.Z.Z.Z.0###a#b.RQt",
"QtQtQtQt.n.q#c#d#e.Y#f#g#h#i#i#i#i#j#k#l.3Qt.y.B.U.6#m#n#o#p#q#i#i#i#i#j#r#s#t.RQt",
"QtQtQtQt.n.r#u#v#w#x#y#z#A#B#B#B#B#C#k#l.3Qt.y.K#D.7#E#p#F#G#H#B#B#B#B#C#r#s#t.RQt",
"QtQtQtQt.n.s.y.y.y#I#J#K#L#M#N#N#N#O#k#l.3Qt.y#P.y.y.y#Q#R#S#T#N#N#N#N#O#r#s#t.RQt",
"QtQtQtQt.n.s.y#U#V#W#X#M#Y#Z#0#0#0#1#2#3.3Qt.y#4.y#U#V#5#6#7#8#0#0#0#0#1#9#s#t.RQt",
"QtQtQtQt.n.s.y#U#Va.a#aaabacadadadae#2#3.3Qt.y.U.y#U#Vafagahaiajajajajae#9#s#t.RQt",
"QtQtQtQt.n.s.y#U#Vakal.y.y.y.y.y.yam#2#3.3Qt.y.U.y#U#Vanaoap#V#V#V#V.yam#9#s#t.RQt",
"QtQtQtQt.n.s.y#U#Vak#L.y#U#U#U#U.yam#2#3.3Qt.y.U.y#U#Vanao#V#U#U#U#U.yam#9#s#t.RQt",
"QtQtQtQt.n.s.y#U#Vak#L.y#U#U#U#U.yam#2#3.3Qt.y.U.y#U#Vanao#V#U#U#U#U.yam#9#s#t.RQt",
"QtQtQtQt.n.s.y#U#Vak#L.y#U#U#U#U.yam#2#3.3Qt.y.U.y#U#Vanao#V#U#U#U#U.yam#9#s#t.RQt",
"QtQtQtQt.n.s.y#U#Vak#L.y#U#U#U#U.yam#2#3.3Qt.y.U.y#U#Vanao#V#U#U#U#U.yam#9#s#t.RQt",
"QtQtQtQt.n.s.y#U#Vak#L.y#U#U#U#U.yam#2#3.3Qt.y.U.y#U#Vanao#V#U#U#U#U.yam#9#s#t.RQt",
"QtQtQtQt.n.s.y#U#Vak#L.y#U#U#U#U.yam#2#3.3Qt.y.U.y#U#Vanao#V#U#U#U#U.yam#9#s#t.RQt",
"QtQtQtQt.n.s.y#U#Vak#L.y#U#U#U#U.yam#2#3.3Qt.y.U.y#U#Vanao#V#U#U#U#U.yam#9#s#t.RQt",
"QtQtQtQt.n.s.y#Vapak#L.y#U#U#U#U.yam#2#3.3Qt.y.U.y#Vapanao#V#U#U#U#U.yam#9#s#t.RQt",
"QtQtQtQt.n.saqarasat#L.y#U#U#U#U.yam#2#3.3Qt.y.U.H.0auavao#V#U#U#U#U.yam#9#s#t.RQt",
"QtQtQtQt.n.s.6awaxay#L.y#U#U#U#U.yam#2#3.3Qt.y.Uaz#EaAaBao#V#U#U#U#U.yam#9#s#t.RQt",
"QtQtQtQt.n.s.6awaxay#L.y#U#U#U#U.yam#2#3.3Qt.y.Uaz#EaAaBao#V#U#U#U#U.yam#9#s#t.RQt",
"QtQtQtQt.n.s.6awaxay#L.y#U#U#U#U.yam#2#3.3Qt.y.Uaz#EaAaBao#V#U#U#U#U.yam#9#s#t.RQt",
"QtQtQtQt.n.s.6awaxay#L.y#U#U#U#U.yam#2#3.3Qt.y.Uaz#EaAaBao#V#U#U#U#U.yam#9#s#t.RQt",
"QtQtQtQt.n.s.6awaxay#L.y#U#U#U#U.yam#2#3.3Qt.y.Uaz#EaAaBao#V#U#U#U#U.yam#9#s#t.RQt",
"QtQtQtQt.n.s.6awaxay#L.y#V#V#V#V.yam#2#3.3Qt.y.Uaz#EaAaBaoap#V#V#V#V.yam#9#s#t.RQt",
"QtQtQtQt.n.s.6awaxay#LahaCaDamamamam#2#3.3Qt.y.Uaz#EaAaBaE#1ajamamamamam#9#s#t.RQt",
"QtQtQtQt.n.s.6awaxay#L#8aFaGaHaHaHam#2#3.3Qt.y.Uaz#EaAaB#N#0acaHaHaHaHam#9#s#t.RQt",
"QtQtQtQt.n.s.6awaxay#L#8aFaGaHaHaHam#2#3.3Qt.y.Uaz#EaAaB#N#0acaHaHaHaHam#9#s#t.RQt",
"QtQtQtQt.n.s.6awaxay#L#8aFaGaHaHaHam#2#3.3Qt.y.Uaz#EaAaB#N#0acaHaHaHaHam#9#s#t.RQt",
"QtQtQtQt.n.s.6awaxay#L#8aFaGaHaHaHam#2#3.3Qt.y.Uaz#EaAaB#N#0acaHaHaHaHam#9#s#t.RQt",
"QtQtQtQt.naIaqarasaJaoahaCaDamamamaKaL#3.3Qt.yaM.H.0auaN#O#1ajamamamamaKaO#s#t.RQt",
"QtQtQtQtaP.n.naQaRaRaRaRaRaRaRaRaRaRaSaT.3Qt.n.n.naQaRaRaRaRaRaRaRaRaRaRaUaT#t.RQt",
"QtQtQtQtQtQtQt.3#t#t#t#t#t#t#t#t#t#t#t#t.3QtQtQtQt.3#t#t#t#t#t#t#t#t#t#t#t#t#b.RQt",
"QtQtQtQtQtQtQt.R.R.R.R.R.R.R.R.R.R.R.R.R.RQtQtQtQt.R.R.R.R.R.R.R.R.R.R.R.R.R.R.SQt",
"QtQtQtQtQtQtQtQtQtQtQtQtQtQtQtQtQtQtQtQtQtQtQtQtQtQtQtQtQtQtQtQtQtQtQtQtQtQtQtQtQt",
"QtQtQtQtQtQtQtQtQtQtQtQtQtQtQtQtQtQtQtQtQtQtQtQtQtQtQtQtQtQtQtQtQtQtQtQtQtQtQtQtQt"};
