/* XPM */
static const char *view_xpm[] = {
/* width height ncolors chars_per_pixel */
"16 16 93 2",
/* colors */
"AA c #FFFFFFFFFFFF",
"BA s bg c None",
"CA c #030303030303",
"DA c #040404040404",
"EA c #080808080808",
"FA c #090909090909",
"GA c #0C0C0C0C0C0C",
"HA c #0F0F0F0F0F0F",
"IA c #101010101010",
"JA c #141414141414",
"KA c #3A3A3A3A3A3A",
"LA c #191919191919",
"MA c #181818181818",
"NA c #1E1E1E1E1E1E",
"OA c #1C1C1C1C1C1C",
"PA c #232323232323",
"AB c #2F2F2F2F2F2F",
"BB c #656565656565",
"CB c #1D1D1D1D1D1D",
"DB c #202020202020",
"EB c #282828282828",
"FB c #2A2A2A2A2A2A",
"GB c #5D5D5D5D5D5D",
"HB c #333333333333",
"IB c #393939393939",
"JB c #515151515151",
"KB c #292929292929",
"LB c #383838383838",
"MB c #2D2D2D2D2D2D",
"NB c #3D3D3D3D3D3D",
"OB c #2B2B2B2B2B2B",
"PB c #424242424242",
"AC c #535353535353",
"BC c #323232323232",
"CC c #363636363636",
"DC c #4C4C4C4C4C4C",
"EC c #ABABABABABAB",
"FC c #212121212121",
"GC c #252525252525",
"HC c #2A2A2A2A2A2A",
"IC c #2C2C2C2C2C2C",
"JC c #313131313131",
"KC c #343434343434",
"LC c #404040404040",
"MC c #525252525252",
"NC c #575757575757",
"OC c #5E5E5E5E5E5E",
"PC c #696969696969",
"AD c #6B6B6B6B6B6B",
"BD c #6C6C6C6C6C6C",
"CD c #7F7F7F7F7F7F",
"DD c #8C8C8C8C8C8C",
"ED c #919191919191",
"FD c #929292929292",
"GD c #939393939393",
"HD c #989898989898",
"ID c #9D9D9D9D9D9D",
"JD c #A2A2A2A2A2A2",
"KD c #A4A4A4A4A4A4",
"LD c #A7A7A7A7A7A7",
"MD c #A9A9A9A9A9A9",
"ND c #ADADADADADAD",
"OD c #AEAEAEAEAEAE",
"PD c #AFAFAFAFAFAF",
"AE c #B0B0B0B0B0B0",
"BE c #B4B4B4B4B4B4",
"CE c #B5B5B5B5B5B5",
"DE c #B6B6B6B6B6B6",
"EE c #B8B8B8B8B8B8",
"FE c #BFBFBFBFBFBF",
"GE c #C0C0C0C0C0C0",
"HE c #C2C2C2C2C2C2",
"IE c #C3C3C3C3C3C3",
"JE c #C5C5C5C5C5C5",
"KE c #C9C9C9C9C9C9",
"LE c #D5D5D5D5D5D5",
"ME c #D6D6D6D6D6D6",
"NE c #D7D7D7D7D7D7",
"OE c #DADADADADADA",
"PE c #DCDCDCDCDCDC",
"AF c #DDDDDDDDDDDD",
"BF c #E0E0E0E0E0E0",
"CF c #E4E4E4E4E4E4",
"DF c #E5E5E5E5E5E5",
"EF c #E7E7E7E7E7E7",
"FF c #E8E8E8E8E8E8",
"GF c #E9E9E9E9E9E9",
"HF c #EAEAEAEAEAEA",
"IF c #EEEEEEEEEEEE",
"JF c #EFEFEFEFEFEF",
"KF c #F3F3F3F3F3F3",
"LF c #F5F5F5F5F5F5",
"MF c #F6F6F6F6F6F6",
/* pixels */
"BABABAFAPAEBEBHABABABABABABABABA",
"BABANADCMCMCMCMCNBFABABABABABABA",
"BALAMCMCNBEBEBNBMCDCLABABABABABA",
"DADCHBFABABABABADAEBDCNABABABABA",
"HBNABABAIADBDBIABABAFAPBNABABABA",
"JABAGACCABGCFCFBBCMABADANBHABABA",
"BAJALBCBPCKECDOCABGCMBCADALBDABA",
"EAHBKANDNEAAKDODIDADGCOBCADAEBBA",
"DBKCEFCEKFJEBDBBBEDDOELBOBCAHALA",
"DBNDMFHENDOCMBPAGEEDEFPELBOBCAJA",
"CAACGFGFEDEDPALCFEFDJFHFLEJCKBBA",
"BAHCACFFDEMDPDJEAEJDIFFFBFPDICOA",
"BABABAFBEEIEHDGDLDKFHFCFAFMENCCB",
"BABABABAHCJBECLFKFHFDFLEIDIBBABA",
"BABABABABABABAKABBGBABHCBABABABA",
"BABABABABABABABABABABABABABABABA"};
