/* XPM */
static const char *zoomin_xpm[] = {
/* width height ncolors chars_per_pixel */
"22 22 142 2",
/* colors */
"AA s bg c None",
"BA c #010101010101",
"CA c #050505050505",
"DA c #0E0E0E0E0F0F",
"EA c #1B1B1B1B1B1B",
"FA c #191919191919",
"GA c #222222222222",
"HA c #262626262727",
"IA c #2A2A2A2A2A2A",
"JA c #2B2B2B2B2B2B",
"KA c #222220202020",
"LA c #0B0B0B0B0B0B",
"MA c #282828282828",
"NA c #2E2E2E2E2E2E",
"OA c #2E2E2E2E2F2F",
"PA c #414141414141",
"AB c #313131313232",
"BB c #323232323232",
"CB c #282828282929",
"DB c #545454545454",
"EB c #272727272A2A",
"FB c #393939393939",
"GB c #2C2C2C2C2C2C",
"HB c #30302F2F2F2F",
"IB c #2F2F2F2F3030",
"JB c #4F4F4F4F4F4F",
"KB c #474747474242",
"LB c #373737373737",
"MB c #3B3B3B3B3B3B",
"NB c #4B4B4A4A4949",
"OB c #626262626262",
"PB c #454545454545",
"AC c #525252525252",
"BC c #646464646464",
"CC c #3C3C3C3C3D3D",
"DC c #161616161616",
"EC c #404040404141",
"FC c #646464646363",
"GC c #515151515252",
"HC c #3A3A3A3A3A3A",
"IC c #565656565656",
"JC c #262626262626",
"KC c #454545454646",
"LC c #4D4D4D4D4D4D",
"MC c #898985858383",
"NC c #1D1D1D1D1D1D",
"OC c #4A4A4A4A4C4C",
"PC c #787878787878",
"AD c #4A4A4A4A4B4B",
"BD c #4A4A4A4A4A4A",
"CD c #4B4B4B4B4B4B",
"DD c #6F6F6F6F6F6F",
"ED c #ACACA9A9A5A5",
"FD c #878787878787",
"GD c #797979797979",
"HD c #404040404040",
"ID c #989898989898",
"JD c #9A9A9A9A9A9A",
"KD c #363636363636",
"LD c #030303030303",
"MD c #1A1A1A1A1A1A",
"ND c #737373737474",
"OD c #0D0D0D0D0D0D",
"PD c #818181818181",
"AE c #212121212121",
"BE c #B1B1B1B1B2B2",
"CE c #A2A2A2A2A4A4",
"DE c #7F7F7F7F7F7F",
"EE c #9E9E9E9E9F9F",
"FE c #ABABABABABAB",
"GE c #6A6A6A6A6A6A",
"HE c #C3C3C3C3C7C7",
"IE c #6E6E6E6E6D6D",
"JE c #ACACACACACAC",
"KE c #919191919191",
"LE c #CCCCCCCCD0D0",
"ME c #E2E2E2E2E4E4",
"NE c #080808080808",
"OE c #E7E7E5E5E7E7",
"PE c #090909090909",
"AF c #101010101010",
"BF c #171717171717",
"CF c #252525252525",
"DF c #313131313131",
"EF c #3E3E3E3E3E3E",
"FF c #7C7C7B7B7979",
"GF c #A3A3A3A3A2A2",
"HF c #ADADADADAFAF",
"IF c #C8C8C8C8C8C8",
"JF c #CFCFCFCFD1D1",
"KF c #D5D5D5D5D5D5",
"LF c #D5D5D5D5D7D7",
"MF c #D5D5E6E6F5F5",
"NF c #DADADADAD8D8",
"OF c #DADADADADADA",
"PF c #DADADADADBDB",
"AG c #DBDBDBDBE1E1",
"BG c #E0E0E0E0E1E1",
"CG c #E0E0E0E0E3E3",
"DG c #E0E0E0E0E6E6",
"EG c #E1E1E1E1E3E3",
"FG c #E2E2EEEEF9F9",
"GG c #E3E3E3E3E7E7",
"HG c #E3E3E3E3E9E9",
"IG c #E4E4E4E4E6E6",
"JG c #E4E4E4E4E9E9",
"KG c #E4E4EEEEF6F6",
"LG c #E6E6E6E6E9E9",
"MG c #E6E6E6E6EAEA",
"NG c #E6E6F0F0FBFB",
"OG c #E7E7E7E7EAEA",
"PG c #E7E7E7E7ECEC",
"AH c #E7E7E7E7EDED",
"BH c #E9E9E9E9ECEC",
"CH c #E9E9E9E9EDED",
"DH c #EAEAEAEAEDED",
"EH c #EAEAEAEAEFEF",
"FH c #ECECECECEDED",
"GH c #ECECECECEFEF",
"HH c #EDEDEDEDEFEF",
"IH c #EDEDEDEDF0F0",
"JH c #EFEFEFEFF0F0",
"KH c #EFEFEFEFF2F2",
"LH c #EFEFEFEFF4F4",
"MH c #F0F0F0F0F2F2",
"NH c #F0F0F0F0F4F4",
"OH c #F2F2F2F2F4F4",
"PH c #F2F2F2F2F5F5",
"AI c #F2F2F2F2F6F6",
"BI c #F4F4F4F4F5F5",
"CI c #F5F5F5F5F6F6",
"DI c #F6F6F6F6F6F6",
"EI c #F6F6F6F6F9F9",
"FI c #F9F9F9F9F9F9",
"GI c #F9F9F9F9FAFA",
"HI c #FAFAFAFAFAFA",
"II c #FAFAFAFAFBFB",
"JI c #FBFBFBFBFAFA",
"KI c #FBFBFBFBFEFE",
"LI c #FEFEFEFEFEFE",
"MI c #000000000000",
"NI c #000000000000",
/* pixels */
"AAAAAABEACNAICGDDDMBACBEAAAAAAAAAAAAAAAAAAAA",
"AAAABEIAGDHFJFOFPFKFJEACBEAAAAAAAAAAAAAAAAAA",
"AABEIAKENFLIKIIIHIHICILFACBEAAAAAAAAAAAAAAAA",
"AAACDEIGFIBIBIBIBIOHMHMHBGDBBEAAAAAAAAAAAAAA",
"BEGCIFCIDIJICIBIBIBIOHJHBHBEACBEAAAAAAAAAAAA",
"HANDEGOHBICIMHMHKHKHMHMHFHBGACBEAAAAAAAAAAAA",
"ABEEJHMHIHKHKHKHKHKHIHIHHHIGOBBEAAAAAAAAAAAA",
"BBFELGPGGHKHKHKHKHIHGHBHGGCGBCBEAAAAAAAAAAAA",
"OAPDGGGGMGBHDHEHDHPGJGDGAGGGJBBEAAAAAAAAAAAA",
"BEPBGGAHCHGHKHKHIHEHPGJGHGLEACBEAAAAAAAAAAAA",
"AAGACELHIHNHBICIPHKHDHOGPHFCBEAAAAAAAAAAAAAA",
"AABEFBHEMHEIIIIIEIOHNHAIGFKBAAAAAAAAAAAAAAAA",
"AAAABEACEDOEIIKIKIGIMEFDGEFFNBMIAAAAAAAAAAAA",
"AAAAAAAABEACMCIDJDPCACBEPAIEEFHDBAAAAAAAAAAA",
"AAAAAAAAAAAAAAAAAAAAAAAAAALBJCPAKDMIAAAAAAAA",
"AAAAMDMDMDMDMDAAAAAAAAAAAAAAHCEADFJAMIAAAAAA",
"AAMDMDMDMFMDHDMDAAAAAAAAAAAAAABBBFCFMDMIAAAA",
"AAMDMDMDMFHDHDMDAAAAAAAAAAAAAAAAJCAFDCODMIAA",
"AAMDKGFGNGMFMFMDAAAAAAAAAAAAAAAABANCLAPELDMI",
"AAMDMDHDMFHDMDMDAAAAAAAAAAAAAAAAAAAADCCAMIMI",
"AANIMDMDMFMDMDNIHBOAABABIBNANAGBCBMAFAAENELA",
"CAKANININININIOCBDADADCDADADADLCKCECCCNAEBDA"};
